<svg xmlns="http://www.w3.org/2000/svg" xmlns:xlink="http://www.w3.org/1999/xlink" width="1920" zoomAndPan="magnify" viewBox="0 0 1440 809.999993" height="1080" preserveAspectRatio="xMidYMid meet" version="1.0"><defs><g/></defs><g fill="#000000" fill-opacity="1"><g transform="translate(660.007821, 412.950028)"><g><path d="M 17.375 -22.734375 C 17.507812 -22.898438 17.921875 -22.894531 18.609375 -22.71875 C 19.304688 -22.550781 19.703125 -22.359375 19.796875 -22.140625 C 19.816406 -22.097656 19.882812 -22.046875 20 -21.984375 C 20.125 -21.929688 20.175781 -21.847656 20.15625 -21.734375 C 20.132812 -21.617188 20.164062 -21.5625 20.25 -21.5625 C 20.289062 -21.5625 20.269531 -21.523438 20.1875 -21.453125 C 20.144531 -21.453125 20.113281 -21.441406 20.09375 -21.421875 C 19.9375 -21.359375 19.898438 -21.296875 19.984375 -21.234375 C 20.035156 -21.210938 20.132812 -21.195312 20.28125 -21.1875 C 20.363281 -21.144531 20.394531 -21.035156 20.375 -20.859375 C 20.351562 -20.691406 20.375 -20.609375 20.4375 -20.609375 C 20.507812 -20.609375 20.550781 -20.582031 20.5625 -20.53125 C 20.570312 -20.476562 20.539062 -20.421875 20.46875 -20.359375 C 20.40625 -20.304688 20.101562 -20.191406 19.5625 -20.015625 L 18.5625 -19.703125 C 18.507812 -19.648438 18.554688 -19.546875 18.703125 -19.390625 C 18.859375 -19.242188 18.9375 -19.148438 18.9375 -19.109375 C 18.96875 -18.804688 18.96875 -18.425781 18.9375 -17.96875 C 18.789062 -16.925781 18.71875 -16.066406 18.71875 -15.390625 C 18.738281 -15.285156 18.710938 -14.910156 18.640625 -14.265625 C 18.578125 -13.617188 18.5625 -13.273438 18.59375 -13.234375 C 18.632812 -13.191406 18.894531 -13.238281 19.375 -13.375 C 21.375 -13.976562 22.523438 -14.140625 22.828125 -13.859375 C 22.953125 -13.773438 23.0625 -13.734375 23.15625 -13.734375 C 23.34375 -13.734375 23.59375 -13.691406 23.90625 -13.609375 C 24.226562 -13.535156 24.421875 -13.457031 24.484375 -13.375 C 24.578125 -13.257812 24.816406 -13.140625 25.203125 -13.015625 C 25.503906 -12.898438 25.6875 -12.785156 25.75 -12.671875 C 25.820312 -12.566406 25.804688 -12.429688 25.703125 -12.265625 C 25.628906 -12.109375 25.628906 -12.007812 25.703125 -11.96875 C 25.785156 -11.925781 25.769531 -11.875 25.65625 -11.8125 C 25.394531 -11.757812 25.441406 -11.660156 25.796875 -11.515625 C 26.054688 -11.441406 25.988281 -11.375 25.59375 -11.3125 C 25.425781 -11.289062 25.234375 -11.28125 25.015625 -11.28125 C 24.203125 -11.28125 23.425781 -11.070312 22.6875 -10.65625 C 22.476562 -10.507812 22.363281 -10.472656 22.34375 -10.546875 C 22.320312 -10.617188 22.195312 -10.640625 21.96875 -10.609375 C 21.738281 -10.578125 21.570312 -10.597656 21.46875 -10.671875 C 21.375 -10.753906 21.25 -10.753906 21.09375 -10.671875 C 20.945312 -10.597656 20.707031 -10.550781 20.375 -10.53125 C 20.164062 -10.53125 19.90625 -10.488281 19.59375 -10.40625 C 19.289062 -10.332031 19.085938 -10.253906 18.984375 -10.171875 C 18.960938 -10.148438 19.003906 -10.109375 19.109375 -10.046875 C 19.328125 -9.890625 19.4375 -8.679688 19.4375 -6.421875 C 19.4375 -4.703125 19.40625 -3.601562 19.34375 -3.125 C 19.144531 -1.320312 19.015625 -0.207031 18.953125 0.21875 C 18.898438 0.65625 18.78125 1.039062 18.59375 1.375 C 18.394531 1.851562 18.296875 2.125 18.296875 2.1875 C 18.296875 2.25 18.1875 2.394531 17.96875 2.625 C 17.75 2.851562 17.539062 3.101562 17.34375 3.375 C 17.15625 3.644531 16.984375 3.804688 16.828125 3.859375 C 16.671875 3.921875 16.484375 4.097656 16.265625 4.390625 C 16.046875 4.679688 15.894531 4.828125 15.8125 4.828125 C 15.507812 4.828125 15.335938 4.367188 15.296875 3.453125 C 15.296875 3.128906 15.226562 2.8125 15.09375 2.5 C 14.96875 2.195312 14.847656 1.984375 14.734375 1.859375 C 14.515625 1.679688 14.242188 1.398438 13.921875 1.015625 C 13.597656 0.640625 13.4375 0.410156 13.4375 0.328125 C 13.4375 0.242188 13.484375 0.222656 13.578125 0.265625 C 13.679688 0.304688 13.882812 0.335938 14.1875 0.359375 C 14.488281 0.378906 14.691406 0.414062 14.796875 0.46875 C 14.910156 0.519531 15.019531 0.523438 15.125 0.484375 C 15.238281 0.441406 15.347656 0.453125 15.453125 0.515625 C 15.648438 0.628906 15.835938 0.457031 16.015625 0 C 16.117188 -0.28125 16.210938 -0.769531 16.296875 -1.46875 C 16.390625 -2.164062 16.414062 -2.609375 16.375 -2.796875 C 16.320312 -2.929688 16.234375 -2.96875 16.109375 -2.90625 L 15.984375 -2.84375 C 15.984375 -2.882812 16.035156 -2.9375 16.140625 -3 C 16.273438 -3.125 16.320312 -3.195312 16.28125 -3.21875 C 16.25 -3.25 16.003906 -3.109375 15.546875 -2.796875 C 14.921875 -2.367188 13.96875 -1.875 12.6875 -1.3125 C 12.46875 -1.195312 12.332031 -1.109375 12.28125 -1.046875 C 12.226562 -0.984375 12.1875 -0.863281 12.15625 -0.6875 C 12.113281 -0.289062 12.0625 -0.0859375 12 -0.078125 C 11.9375 -0.0664062 11.796875 -0.210938 11.578125 -0.515625 C 11.253906 -0.890625 11.070312 -1.15625 11.03125 -1.3125 C 11 -1.476562 10.875 -1.648438 10.65625 -1.828125 L 10.3125 -2.09375 L 10.3125 -4.5 C 10.3125 -6.0625 10.332031 -6.84375 10.375 -6.84375 C 10.414062 -6.84375 10.5 -6.800781 10.625 -6.71875 C 10.675781 -6.65625 10.765625 -6.644531 10.890625 -6.6875 C 11.023438 -6.726562 11.316406 -6.867188 11.765625 -7.109375 C 12.378906 -7.453125 12.921875 -7.71875 13.390625 -7.90625 C 13.859375 -8.09375 14.128906 -8.210938 14.203125 -8.265625 C 14.273438 -8.316406 14.519531 -8.328125 14.9375 -8.296875 C 15.351562 -8.265625 15.640625 -8.25 15.796875 -8.25 C 15.960938 -8.25 16.15625 -8.1875 16.375 -8.0625 L 16.65625 -7.953125 L 16.65625 -7.375 C 16.632812 -7 16.582031 -6.773438 16.5 -6.703125 C 16.414062 -6.628906 16.351562 -6.414062 16.3125 -6.0625 C 16.28125 -5.71875 16.300781 -5.523438 16.375 -5.484375 C 16.476562 -5.410156 16.550781 -5.472656 16.59375 -5.671875 C 16.613281 -5.753906 16.632812 -5.875 16.65625 -6.03125 C 16.675781 -6.40625 16.703125 -6.59375 16.734375 -6.59375 C 16.773438 -6.59375 16.78125 -6.929688 16.75 -7.609375 C 16.71875 -8.296875 16.660156 -8.664062 16.578125 -8.71875 C 16.503906 -8.78125 16.457031 -8.914062 16.4375 -9.125 C 16.414062 -9.34375 16.394531 -9.460938 16.375 -9.484375 C 16.300781 -9.578125 15.773438 -9.46875 14.796875 -9.15625 L 13.65625 -8.796875 C 13.113281 -8.628906 12.671875 -8.46875 12.328125 -8.3125 C 11.191406 -7.769531 9.851562 -7.28125 8.3125 -6.84375 C 7.925781 -6.71875 7.503906 -6.65625 7.046875 -6.65625 C 6.585938 -6.65625 6.269531 -6.707031 6.09375 -6.8125 C 5.925781 -6.894531 5.84375 -6.957031 5.84375 -7 C 5.84375 -7.050781 5.757812 -7.113281 5.59375 -7.1875 C 5.425781 -7.257812 5.285156 -7.34375 5.171875 -7.4375 C 5.066406 -7.539062 4.957031 -7.625 4.84375 -7.6875 C 4.738281 -7.757812 4.710938 -7.796875 4.765625 -7.796875 C 4.960938 -7.796875 4.914062 -7.90625 4.625 -8.125 C 4.5625 -8.1875 4.488281 -8.238281 4.40625 -8.28125 C 4.144531 -8.414062 4.015625 -8.503906 4.015625 -8.546875 C 4.015625 -8.710938 4.382812 -8.820312 5.125 -8.875 C 5.882812 -8.9375 7.335938 -9.378906 9.484375 -10.203125 C 10.503906 -10.617188 11.070312 -10.835938 11.1875 -10.859375 C 11.363281 -10.941406 11.34375 -11.082031 11.125 -11.28125 C 10.988281 -11.414062 10.921875 -11.554688 10.921875 -11.703125 C 10.921875 -11.816406 10.875 -11.957031 10.78125 -12.125 C 10.695312 -12.300781 10.609375 -12.421875 10.515625 -12.484375 C 10.421875 -12.554688 10.375 -12.882812 10.375 -13.46875 C 10.375 -14.75 10.234375 -15.695312 9.953125 -16.3125 C 9.773438 -16.675781 9.6875 -16.878906 9.6875 -16.921875 C 9.707031 -16.941406 9.796875 -16.953125 9.953125 -16.953125 C 10.117188 -16.953125 10.296875 -16.929688 10.484375 -16.890625 C 10.671875 -16.847656 10.796875 -16.816406 10.859375 -16.796875 C 10.921875 -16.734375 10.988281 -16.703125 11.0625 -16.703125 C 11.226562 -16.703125 11.421875 -16.484375 11.640625 -16.046875 L 11.8125 -15.78125 L 12.546875 -16.109375 C 13.046875 -16.367188 13.410156 -16.535156 13.640625 -16.609375 C 13.867188 -16.691406 14.039062 -16.769531 14.15625 -16.84375 C 14.28125 -16.914062 14.570312 -16.941406 15.03125 -16.921875 C 15.550781 -16.859375 15.863281 -16.804688 15.96875 -16.765625 C 16.082031 -16.722656 16.171875 -16.582031 16.234375 -16.34375 L 16.34375 -15.9375 L 16.40625 -16.3125 C 16.445312 -16.59375 16.46875 -17.085938 16.46875 -17.796875 C 16.425781 -18.472656 16.382812 -18.8125 16.34375 -18.8125 C 16.207031 -18.75 15.539062 -18.53125 14.34375 -18.15625 L 13.171875 -17.796875 L 12.71875 -17.96875 C 12.414062 -18.09375 12.195312 -18.15625 12.0625 -18.15625 C 11.9375 -18.15625 11.789062 -18.222656 11.625 -18.359375 C 11.457031 -18.492188 11.21875 -18.632812 10.90625 -18.78125 C 10.59375 -18.9375 10.378906 -19.054688 10.265625 -19.140625 C 10.179688 -19.222656 10.144531 -19.269531 10.15625 -19.28125 C 10.164062 -19.289062 10.21875 -19.296875 10.3125 -19.296875 C 10.4375 -19.304688 10.5 -19.332031 10.5 -19.375 C 10.476562 -19.4375 10.378906 -19.46875 10.203125 -19.46875 C 10.097656 -19.46875 9.96875 -19.488281 9.8125 -19.53125 C 9.664062 -19.570312 9.546875 -19.617188 9.453125 -19.671875 C 9.367188 -19.734375 9.335938 -19.773438 9.359375 -19.796875 C 9.484375 -19.972656 9.929688 -20.113281 10.703125 -20.21875 C 11.410156 -20.320312 12.492188 -20.703125 13.953125 -21.359375 C 15.410156 -21.984375 16.398438 -22.375 16.921875 -22.53125 C 17.160156 -22.59375 17.3125 -22.660156 17.375 -22.734375 Z M 13.5 -15.9375 L 13.46875 -15.953125 C 13.40625 -15.953125 13.253906 -15.894531 13.015625 -15.78125 C 12.773438 -15.675781 12.65625 -15.613281 12.65625 -15.59375 C 12.65625 -15.59375 12.71875 -15.613281 12.84375 -15.65625 C 12.976562 -15.695312 13.113281 -15.75 13.25 -15.8125 C 13.394531 -15.875 13.476562 -15.914062 13.5 -15.9375 Z M 16.265625 -14.578125 C 16.285156 -14.703125 16.296875 -14.820312 16.296875 -14.9375 C 16.296875 -15.0625 16.296875 -15.144531 16.296875 -15.1875 C 16.296875 -15.238281 16.296875 -15.265625 16.296875 -15.265625 C 16.273438 -15.265625 16.222656 -15.125 16.140625 -14.84375 C 16.054688 -14.570312 15.929688 -14.332031 15.765625 -14.125 C 15.597656 -13.925781 15.523438 -13.75 15.546875 -13.59375 C 15.578125 -13.445312 15.566406 -13.375 15.515625 -13.375 C 15.453125 -13.375 15.347656 -13.300781 15.203125 -13.15625 C 15.066406 -13.007812 15 -12.90625 15 -12.84375 C 15 -12.820312 15.09375 -12.820312 15.28125 -12.84375 C 15.46875 -12.863281 15.671875 -13.035156 15.890625 -13.359375 C 16.117188 -13.691406 16.242188 -14.097656 16.265625 -14.578125 Z M 13.65625 -14.1875 C 13.851562 -14.644531 13.941406 -14.894531 13.921875 -14.9375 C 13.921875 -14.957031 13.878906 -14.953125 13.796875 -14.921875 C 13.722656 -14.890625 13.617188 -14.84375 13.484375 -14.78125 C 13.359375 -14.726562 13.222656 -14.648438 13.078125 -14.546875 L 12.265625 -14.09375 L 12.328125 -13.625 C 12.367188 -13.300781 12.398438 -13.132812 12.421875 -13.125 C 12.441406 -13.113281 12.601562 -13.175781 12.90625 -13.3125 C 13.082031 -13.414062 13.207031 -13.507812 13.28125 -13.59375 C 13.363281 -13.6875 13.488281 -13.882812 13.65625 -14.1875 Z M 14.0625 -13.796875 C 14.144531 -13.796875 14.1875 -13.828125 14.1875 -13.890625 C 14.1875 -13.953125 14.164062 -13.984375 14.125 -13.984375 C 14.082031 -13.984375 14.039062 -13.953125 14 -13.890625 C 13.96875 -13.828125 13.988281 -13.796875 14.0625 -13.796875 Z M 15.703125 -12.6875 C 15.578125 -12.625 15.515625 -12.625 15.515625 -12.6875 C 15.515625 -12.75 15.484375 -12.78125 15.421875 -12.78125 C 15.359375 -12.78125 15.316406 -12.75 15.296875 -12.6875 C 15.273438 -12.625 15.273438 -12.5625 15.296875 -12.5 C 15.316406 -12.445312 15.273438 -12.40625 15.171875 -12.375 C 15.078125 -12.34375 14.988281 -12.285156 14.90625 -12.203125 C 14.863281 -12.171875 14.882812 -12.15625 14.96875 -12.15625 C 15.050781 -12.15625 15.222656 -12.171875 15.484375 -12.203125 C 15.921875 -12.304688 16.140625 -12.398438 16.140625 -12.484375 C 16.140625 -12.535156 16.085938 -12.59375 15.984375 -12.65625 C 15.929688 -12.738281 15.835938 -12.75 15.703125 -12.6875 Z M 11.90625 -6.390625 C 12.207031 -6.523438 12.359375 -6.617188 12.359375 -6.671875 C 12.359375 -6.722656 12.351562 -6.742188 12.34375 -6.734375 C 12.332031 -6.722656 12.097656 -6.648438 11.640625 -6.515625 C 11.253906 -6.367188 11.0625 -6.285156 11.0625 -6.265625 C 11.0625 -6.242188 11.101562 -6.21875 11.1875 -6.1875 C 11.351562 -6.082031 11.4375 -6.007812 11.4375 -5.96875 C 11.445312 -5.851562 11.570312 -5.863281 11.8125 -6 C 11.914062 -6.082031 11.925781 -6.125 11.84375 -6.125 C 11.820312 -6.125 11.773438 -6.101562 11.703125 -6.0625 C 11.535156 -6.039062 11.441406 -6.050781 11.421875 -6.09375 C 11.410156 -6.132812 11.460938 -6.179688 11.578125 -6.234375 C 11.640625 -6.273438 11.75 -6.328125 11.90625 -6.390625 Z M 13.625 -5.90625 C 13.625 -5.96875 13.398438 -5.910156 12.953125 -5.734375 C 12.617188 -5.609375 12.332031 -5.535156 12.09375 -5.515625 L 11.703125 -5.515625 L 11.875 -4.796875 C 12.019531 -4.234375 12.113281 -3.945312 12.15625 -3.9375 C 12.1875 -3.914062 12.28125 -3.992188 12.4375 -4.171875 C 12.601562 -4.347656 12.84375 -4.664062 13.15625 -5.125 C 13.46875 -5.582031 13.625 -5.84375 13.625 -5.90625 Z M 13.625 -5.90625 "/></g></g></g><g fill="#000000" fill-opacity="1"><g transform="translate(689.99617, 412.950028)"><g><path d="M 23.609375 -19.796875 C 23.910156 -19.796875 24.128906 -19.847656 24.265625 -19.953125 C 24.410156 -20.066406 24.5 -20.125 24.53125 -20.125 C 24.570312 -20.125 24.773438 -19.976562 25.140625 -19.6875 C 25.503906 -19.40625 25.796875 -19.234375 26.015625 -19.171875 C 26.234375 -19.109375 26.648438 -18.914062 27.265625 -18.59375 C 27.890625 -18.28125 28.257812 -18.070312 28.375 -17.96875 C 28.476562 -17.863281 28.53125 -17.734375 28.53125 -17.578125 C 28.53125 -17.421875 28.5625 -17.332031 28.625 -17.3125 C 28.738281 -17.207031 28.757812 -17.117188 28.6875 -17.046875 C 28.664062 -17.023438 28.632812 -17.019531 28.59375 -17.03125 C 28.550781 -17.039062 28.507812 -17.023438 28.46875 -16.984375 C 28.425781 -16.941406 28.394531 -16.878906 28.375 -16.796875 C 28.300781 -16.578125 28.113281 -16.414062 27.8125 -16.3125 C 27.507812 -16.21875 27.269531 -16.226562 27.09375 -16.34375 C 26.96875 -16.40625 26.75 -16.472656 26.4375 -16.546875 C 26.132812 -16.617188 25.921875 -16.703125 25.796875 -16.796875 C 25.679688 -16.898438 25.535156 -16.96875 25.359375 -17 C 25.191406 -17.039062 25.039062 -17.179688 24.90625 -17.421875 C 24.78125 -17.671875 24.597656 -17.875 24.359375 -18.03125 C 24.054688 -18.207031 23.789062 -18.40625 23.5625 -18.625 C 23.332031 -18.84375 23.21875 -18.992188 23.21875 -19.078125 C 23.21875 -19.160156 23.160156 -19.25 23.046875 -19.34375 C 22.835938 -19.582031 22.957031 -19.722656 23.40625 -19.765625 C 23.457031 -19.785156 23.523438 -19.796875 23.609375 -19.796875 Z M 16.375 -23.25 C 16.675781 -23.488281 17.078125 -23.445312 17.578125 -23.125 C 17.796875 -22.988281 17.925781 -22.921875 17.96875 -22.921875 C 18.007812 -22.921875 18.1875 -22.796875 18.5 -22.546875 C 18.820312 -22.296875 19.066406 -22.117188 19.234375 -22.015625 C 19.410156 -21.921875 19.550781 -21.800781 19.65625 -21.65625 C 19.8125 -21.414062 20.019531 -20.488281 20.28125 -18.875 C 20.382812 -18.289062 20.472656 -17.859375 20.546875 -17.578125 C 20.628906 -17.296875 20.671875 -17.085938 20.671875 -16.953125 C 20.671875 -16.585938 20.941406 -16.347656 21.484375 -16.234375 L 22.4375 -15.984375 L 23.28125 -15.78125 C 23.539062 -15.71875 23.691406 -15.664062 23.734375 -15.625 C 23.847656 -15.507812 23.78125 -15.234375 23.53125 -14.796875 C 23.28125 -14.367188 22.9375 -13.925781 22.5 -13.46875 C 22.175781 -13.144531 21.976562 -12.894531 21.90625 -12.71875 C 21.84375 -12.539062 21.84375 -12.257812 21.90625 -11.875 C 21.976562 -11.375 22.191406 -10.578125 22.546875 -9.484375 C 22.910156 -8.398438 23.15625 -7.789062 23.28125 -7.65625 C 23.28125 -7.65625 23.300781 -7.660156 23.34375 -7.671875 C 23.382812 -7.691406 23.414062 -7.734375 23.4375 -7.796875 C 23.46875 -7.859375 23.515625 -7.929688 23.578125 -8.015625 C 23.640625 -8.109375 23.703125 -8.203125 23.765625 -8.296875 C 23.835938 -8.398438 23.90625 -8.515625 23.96875 -8.640625 C 24.382812 -9.359375 24.59375 -9.804688 24.59375 -9.984375 C 24.59375 -10.109375 24.601562 -10.1875 24.625 -10.21875 C 24.644531 -10.25 24.6875 -10.253906 24.75 -10.234375 C 24.832031 -10.191406 24.921875 -10.210938 25.015625 -10.296875 C 25.234375 -10.515625 25.4375 -10.503906 25.625 -10.265625 C 25.675781 -10.160156 25.765625 -10.109375 25.890625 -10.109375 C 26.023438 -10.109375 26.21875 -9.976562 26.46875 -9.71875 C 26.71875 -9.457031 26.875 -9.226562 26.9375 -9.03125 C 27.082031 -8.613281 26.972656 -8.234375 26.609375 -7.890625 C 26.429688 -7.710938 26.222656 -7.445312 25.984375 -7.09375 C 25.742188 -6.738281 25.421875 -6.304688 25.015625 -5.796875 C 24.710938 -5.390625 24.546875 -5.140625 24.515625 -5.046875 C 24.492188 -4.960938 24.503906 -4.859375 24.546875 -4.734375 C 24.617188 -4.554688 24.820312 -4.078125 25.15625 -3.296875 C 25.488281 -2.515625 25.753906 -1.925781 25.953125 -1.53125 C 26.148438 -1.132812 26.25 -0.867188 26.25 -0.734375 C 26.25 -0.609375 26.273438 -0.546875 26.328125 -0.546875 C 26.378906 -0.546875 26.441406 -0.429688 26.515625 -0.203125 C 26.597656 0.015625 26.695312 0.269531 26.8125 0.5625 C 27.457031 1.96875 27.71875 2.703125 27.59375 2.765625 C 27.539062 2.816406 27.515625 2.925781 27.515625 3.09375 C 27.515625 3.269531 27.539062 3.425781 27.59375 3.5625 C 27.65625 3.644531 27.695312 3.769531 27.71875 3.9375 C 27.738281 4.113281 27.742188 4.253906 27.734375 4.359375 C 27.722656 4.472656 27.6875 4.53125 27.625 4.53125 C 27.601562 4.53125 27.585938 4.539062 27.578125 4.5625 C 27.566406 4.582031 27.566406 4.613281 27.578125 4.65625 C 27.585938 4.707031 27.597656 4.78125 27.609375 4.875 C 27.617188 4.96875 27.65625 5.082031 27.71875 5.21875 L 27.78125 5.4375 L 27.515625 5.21875 C 27.347656 5.0625 27.1875 4.992188 27.03125 5.015625 C 26.875 5.046875 26.796875 5.035156 26.796875 4.984375 C 26.796875 4.941406 26.660156 4.847656 26.390625 4.703125 C 26.117188 4.566406 25.984375 4.472656 25.984375 4.421875 C 25.984375 4.367188 25.929688 4.332031 25.828125 4.3125 C 25.734375 4.300781 25.601562 4.140625 25.4375 3.828125 C 25.28125 3.515625 25.144531 3.28125 25.03125 3.125 C 24.925781 2.976562 24.851562 2.835938 24.8125 2.703125 C 24.769531 2.535156 24.539062 1.992188 24.125 1.078125 C 23.914062 0.617188 23.703125 0.0976562 23.484375 -0.484375 C 23.304688 -1.078125 23.160156 -1.53125 23.046875 -1.84375 C 22.941406 -2.15625 22.847656 -2.40625 22.765625 -2.59375 C 22.691406 -2.78125 22.628906 -2.898438 22.578125 -2.953125 C 22.523438 -3.003906 22.488281 -3.03125 22.46875 -3.03125 C 22.363281 -2.96875 22.285156 -2.9375 22.234375 -2.9375 C 22.191406 -2.9375 22.003906 -2.804688 21.671875 -2.546875 C 21.347656 -2.285156 21.144531 -2.15625 21.0625 -2.15625 C 20.914062 -2.132812 20.546875 -1.875 19.953125 -1.375 C 19.773438 -1.238281 19.59375 -1.148438 19.40625 -1.109375 C 19.226562 -1.066406 19.097656 -1.035156 19.015625 -1.015625 C 18.921875 -0.972656 18.832031 -1 18.75 -1.09375 C 18.664062 -1.1875 18.632812 -1.300781 18.65625 -1.4375 C 18.695312 -1.601562 18.660156 -1.691406 18.546875 -1.703125 C 18.316406 -1.785156 18.332031 -1.90625 18.59375 -2.0625 C 18.613281 -2.082031 18.632812 -2.101562 18.65625 -2.125 C 19.113281 -2.425781 19.742188 -2.976562 20.546875 -3.78125 C 21.347656 -4.582031 21.75 -5.0625 21.75 -5.21875 C 21.75 -5.28125 21.613281 -5.625 21.34375 -6.25 C 21.070312 -6.882812 20.90625 -7.222656 20.84375 -7.265625 C 20.820312 -7.316406 20.664062 -7.164062 20.375 -6.8125 L 19.46875 -5.796875 L 18.515625 -4.703125 C 18.066406 -4.191406 17.484375 -3.570312 16.765625 -2.84375 C 16.046875 -2.125 15.628906 -1.742188 15.515625 -1.703125 C 15.304688 -1.609375 15.0625 -1.457031 14.78125 -1.25 C 14.507812 -1.039062 14.253906 -0.914062 14.015625 -0.875 C 13.828125 -0.832031 13.710938 -0.835938 13.671875 -0.890625 C 13.640625 -0.953125 13.625 -1.175781 13.625 -1.5625 C 13.625 -2.144531 13.722656 -2.546875 13.921875 -2.765625 C 13.960938 -2.796875 13.953125 -2.859375 13.890625 -2.953125 C 13.828125 -3.046875 13.820312 -3.128906 13.875 -3.203125 C 13.925781 -3.285156 13.941406 -3.363281 13.921875 -3.4375 C 13.898438 -3.519531 13.898438 -3.632812 13.921875 -3.78125 C 13.941406 -3.894531 13.96875 -3.953125 14 -3.953125 C 14.03125 -3.953125 14.101562 -3.914062 14.21875 -3.84375 L 14.453125 -3.71875 L 15.125 -4.375 C 15.382812 -4.675781 15.726562 -5.097656 16.15625 -5.640625 C 16.582031 -6.179688 16.953125 -6.664062 17.265625 -7.09375 C 17.578125 -7.519531 17.703125 -7.734375 17.640625 -7.734375 C 17.617188 -7.734375 17.332031 -7.597656 16.78125 -7.328125 C 16.226562 -7.066406 15.851562 -6.882812 15.65625 -6.78125 C 14.875 -6.300781 14.457031 -6.007812 14.40625 -5.90625 C 14.382812 -5.882812 14.316406 -5.851562 14.203125 -5.8125 C 14.097656 -5.78125 14.046875 -5.816406 14.046875 -5.921875 C 14.046875 -6.035156 14.003906 -6.113281 13.921875 -6.15625 C 13.835938 -6.207031 13.773438 -6.414062 13.734375 -6.78125 C 13.710938 -7.082031 13.675781 -7.234375 13.625 -7.234375 C 13.582031 -7.234375 13.5 -7.0625 13.375 -6.71875 C 13.257812 -6.238281 13.015625 -5.613281 12.640625 -4.84375 C 12.273438 -4.070312 12.007812 -3.585938 11.84375 -3.390625 C 11.726562 -3.265625 11.609375 -3.113281 11.484375 -2.9375 C 11.304688 -2.695312 11.207031 -2.675781 11.1875 -2.875 C 11.1875 -2.976562 11.117188 -3.144531 10.984375 -3.375 C 10.859375 -3.601562 10.726562 -3.789062 10.59375 -3.9375 C 10.507812 -3.988281 10.476562 -4.117188 10.5 -4.328125 C 10.519531 -4.546875 10.488281 -4.738281 10.40625 -4.90625 C 10.332031 -5.070312 10.320312 -5.21875 10.375 -5.34375 C 10.457031 -5.414062 10.566406 -5.648438 10.703125 -6.046875 C 10.847656 -6.453125 10.921875 -6.664062 10.921875 -6.6875 C 10.859375 -6.726562 10.71875 -6.625 10.5 -6.375 C 10.28125 -6.125 10.050781 -5.816406 9.8125 -5.453125 C 9.570312 -5.097656 9.410156 -4.820312 9.328125 -4.625 C 9.234375 -4.40625 9.0625 -4.125 8.8125 -3.78125 C 8.5625 -3.4375 8.394531 -3.175781 8.3125 -3 C 8.25 -2.84375 8.007812 -2.535156 7.59375 -2.078125 C 7.1875 -1.628906 6.722656 -1.1875 6.203125 -0.75 L 5.515625 -0.15625 L 5.046875 -0.234375 C 4.785156 -0.253906 4.582031 -0.3125 4.4375 -0.40625 C 4.300781 -0.5 4.039062 -0.742188 3.65625 -1.140625 C 3.476562 -1.316406 3.347656 -1.40625 3.265625 -1.40625 C 3.171875 -1.40625 2.972656 -1.503906 2.671875 -1.703125 C 2.367188 -1.910156 2.21875 -2.0625 2.21875 -2.15625 C 2.21875 -2.21875 2.175781 -2.25 2.09375 -2.25 C 2.0625 -2.25 1.988281 -2.359375 1.875 -2.578125 C 1.757812 -2.796875 1.703125 -2.957031 1.703125 -3.0625 C 1.703125 -3.125 1.742188 -3.140625 1.828125 -3.109375 C 1.910156 -3.078125 1.984375 -3.101562 2.046875 -3.1875 C 2.117188 -3.28125 2.335938 -3.304688 2.703125 -3.265625 C 2.960938 -3.242188 3.113281 -3.238281 3.15625 -3.25 C 3.207031 -3.257812 3.242188 -3.304688 3.265625 -3.390625 C 3.328125 -3.523438 3.738281 -3.984375 4.5 -4.765625 L 5.671875 -5.96875 L 5.90625 -6.8125 C 6.050781 -7.375 6.144531 -7.765625 6.1875 -7.984375 L 6.234375 -8.34375 L 5.484375 -8.34375 C 4.984375 -8.363281 4.613281 -8.410156 4.375 -8.484375 C 4.132812 -8.566406 3.925781 -8.609375 3.75 -8.609375 C 3.570312 -8.609375 3.332031 -8.707031 3.03125 -8.90625 C 2.726562 -9.101562 2.414062 -9.253906 2.09375 -9.359375 C 1.78125 -9.460938 1.609375 -9.566406 1.578125 -9.671875 C 1.546875 -9.785156 1.46875 -9.84375 1.34375 -9.84375 C 1.1875 -9.90625 1.289062 -10.046875 1.65625 -10.265625 C 1.789062 -10.359375 1.925781 -10.425781 2.0625 -10.46875 C 2.601562 -10.613281 3 -10.742188 3.25 -10.859375 C 3.5 -10.984375 4.101562 -11.320312 5.0625 -11.875 C 5.363281 -12.082031 5.59375 -12.222656 5.75 -12.296875 C 5.914062 -12.378906 6.054688 -12.46875 6.171875 -12.5625 C 6.296875 -12.664062 6.425781 -12.738281 6.5625 -12.78125 C 6.664062 -12.84375 6.734375 -12.929688 6.765625 -13.046875 C 6.796875 -13.171875 6.84375 -13.539062 6.90625 -14.15625 C 7.039062 -15.875 7.03125 -17.175781 6.875 -18.0625 C 6.832031 -18.382812 6.785156 -18.597656 6.734375 -18.703125 C 6.679688 -18.816406 6.578125 -18.953125 6.421875 -19.109375 C 6.160156 -19.328125 6.03125 -19.457031 6.03125 -19.5 C 6.03125 -19.539062 5.96875 -19.601562 5.84375 -19.6875 C 5.726562 -19.78125 5.707031 -19.894531 5.78125 -20.03125 C 5.863281 -20.175781 6.035156 -20.234375 6.296875 -20.203125 C 6.554688 -20.171875 6.90625 -20.09375 7.34375 -19.96875 C 7.789062 -19.851562 8.132812 -19.765625 8.375 -19.703125 C 8.613281 -19.691406 8.945312 -19.570312 9.375 -19.34375 C 9.800781 -19.125 10.085938 -18.9375 10.234375 -18.78125 C 10.304688 -18.632812 10.347656 -18.507812 10.359375 -18.40625 C 10.367188 -18.3125 10.363281 -18.046875 10.34375 -17.609375 C 10.3125 -16.992188 10.273438 -16.65625 10.234375 -16.59375 C 10.171875 -16.507812 10.082031 -16.234375 9.96875 -15.765625 C 9.863281 -15.296875 9.8125 -14.988281 9.8125 -14.84375 C 9.8125 -14.707031 9.75 -14.488281 9.625 -14.1875 C 9.570312 -13.925781 9.5625 -13.753906 9.59375 -13.671875 C 9.632812 -13.597656 9.796875 -13.570312 10.078125 -13.59375 C 10.359375 -13.59375 10.5 -13.53125 10.5 -13.40625 C 10.5 -13.289062 10.5625 -13.242188 10.6875 -13.265625 C 10.800781 -13.316406 10.941406 -13.300781 11.109375 -13.21875 C 11.285156 -13.144531 11.375 -13.054688 11.375 -12.953125 C 11.375 -12.835938 11.332031 -12.769531 11.25 -12.75 C 11.164062 -12.726562 11.125 -12.664062 11.125 -12.5625 C 11.125 -12.488281 11.175781 -12.390625 11.28125 -12.265625 C 11.394531 -12.148438 11.503906 -12.09375 11.609375 -12.09375 C 11.867188 -12.09375 11.847656 -11.953125 11.546875 -11.671875 C 11.429688 -11.566406 11.242188 -11.414062 10.984375 -11.21875 C 10.703125 -11 10.320312 -10.773438 9.84375 -10.546875 C 9.363281 -10.316406 9.101562 -10.148438 9.0625 -10.046875 C 8.914062 -9.523438 8.796875 -8.835938 8.703125 -7.984375 C 8.679688 -7.679688 8.648438 -7.46875 8.609375 -7.34375 C 8.566406 -7.226562 8.585938 -7.164062 8.671875 -7.15625 C 8.753906 -7.144531 8.832031 -7.179688 8.90625 -7.265625 C 8.96875 -7.359375 9.03125 -7.40625 9.09375 -7.40625 C 9.15625 -7.40625 9.382812 -7.546875 9.78125 -7.828125 L 10.765625 -8.578125 C 11.265625 -8.921875 11.5625 -9.160156 11.65625 -9.296875 C 11.757812 -9.441406 11.851562 -9.734375 11.9375 -10.171875 C 12.175781 -11.515625 12.144531 -12.59375 11.84375 -13.40625 C 11.75 -13.6875 11.765625 -13.863281 11.890625 -13.9375 C 12.023438 -14.007812 12.203125 -13.941406 12.421875 -13.734375 C 12.554688 -13.640625 12.6875 -13.59375 12.8125 -13.59375 C 12.945312 -13.59375 13.085938 -13.507812 13.234375 -13.34375 C 13.410156 -13.101562 13.617188 -13.019531 13.859375 -13.09375 C 14.097656 -13.164062 14.75 -13.488281 15.8125 -14.0625 C 17.113281 -14.8125 17.859375 -15.210938 18.046875 -15.265625 C 18.234375 -15.328125 18.328125 -15.390625 18.328125 -15.453125 C 18.328125 -15.515625 18.253906 -15.78125 18.109375 -16.25 C 17.972656 -16.71875 17.796875 -17.410156 17.578125 -18.328125 C 17.179688 -20.109375 16.84375 -21.28125 16.5625 -21.84375 C 16.394531 -22.15625 16.332031 -22.359375 16.375 -22.453125 C 16.414062 -22.546875 16.378906 -22.671875 16.265625 -22.828125 C 16.179688 -22.910156 16.148438 -22.972656 16.171875 -23.015625 C 16.191406 -23.066406 16.257812 -23.144531 16.375 -23.25 Z M 16.140625 -10.625 C 17.140625 -11.601562 17.640625 -12.109375 17.640625 -12.140625 C 17.640625 -12.179688 17.628906 -12.203125 17.609375 -12.203125 C 17.585938 -12.203125 17.160156 -11.957031 16.328125 -11.46875 C 15.503906 -10.976562 15.050781 -10.71875 14.96875 -10.6875 C 14.863281 -10.582031 14.734375 -10.53125 14.578125 -10.53125 C 14.484375 -10.53125 14.414062 -10.515625 14.375 -10.484375 C 14.332031 -10.453125 14.300781 -10.367188 14.28125 -10.234375 C 14.238281 -10.015625 14.195312 -9.742188 14.15625 -9.421875 C 14.082031 -9.015625 14.070312 -8.8125 14.125 -8.8125 C 14.125 -8.8125 14.144531 -8.820312 14.1875 -8.84375 C 14.269531 -8.882812 14.300781 -8.945312 14.28125 -9.03125 C 14.257812 -9.113281 14.3125 -9.15625 14.4375 -9.15625 C 14.570312 -9.15625 15.140625 -9.644531 16.140625 -10.625 Z M 13.796875 -7.984375 C 13.796875 -7.921875 13.832031 -7.921875 13.90625 -7.984375 C 13.976562 -8.054688 14 -8.109375 13.96875 -8.140625 C 13.9375 -8.171875 13.898438 -8.171875 13.859375 -8.140625 C 13.816406 -8.109375 13.796875 -8.054688 13.796875 -7.984375 Z M 3.5 -3.28125 C 3.5625 -3.3125 3.59375 -3.335938 3.59375 -3.359375 C 3.59375 -3.378906 3.5625 -3.390625 3.5 -3.390625 C 3.445312 -3.390625 3.421875 -3.363281 3.421875 -3.3125 C 3.421875 -3.257812 3.445312 -3.25 3.5 -3.28125 Z M 3.5 -3.28125 "/></g></g></g><g fill="#000000" fill-opacity="1"><g transform="translate(719.984519, 412.950028)"><g><path d="M 12.75 -24.234375 C 12.726562 -24.296875 12.753906 -24.363281 12.828125 -24.4375 C 12.898438 -24.507812 12.941406 -24.546875 12.953125 -24.546875 C 13.015625 -24.546875 13.289062 -24.421875 13.78125 -24.171875 C 14.269531 -23.921875 14.523438 -23.773438 14.546875 -23.734375 C 14.566406 -23.671875 14.707031 -23.484375 14.96875 -23.171875 C 15.226562 -22.859375 15.335938 -22.703125 15.296875 -22.703125 C 15.253906 -22.703125 15.296875 -22.648438 15.421875 -22.546875 C 15.554688 -22.453125 15.625 -22.304688 15.625 -22.109375 C 15.582031 -19.953125 15.664062 -18.851562 15.875 -18.8125 C 16.6875 -18.707031 17.164062 -18.46875 17.3125 -18.09375 C 17.394531 -17.925781 17.523438 -17.742188 17.703125 -17.546875 C 17.878906 -17.347656 18.007812 -17.25 18.09375 -17.25 C 18.15625 -17.25 18.21875 -17.171875 18.28125 -17.015625 C 18.351562 -16.867188 18.375 -16.765625 18.34375 -16.703125 C 18.3125 -16.648438 18.316406 -16.582031 18.359375 -16.5 C 18.421875 -16.414062 18.445312 -16.328125 18.4375 -16.234375 C 18.425781 -16.148438 18.390625 -16.109375 18.328125 -16.109375 C 18.234375 -16.128906 17.9375 -16.0625 17.4375 -15.90625 C 16.945312 -15.757812 16.546875 -15.644531 16.234375 -15.5625 C 15.710938 -15.46875 15.441406 -15.316406 15.421875 -15.109375 C 15.398438 -14.898438 15.40625 -14.765625 15.4375 -14.703125 C 15.46875 -14.640625 15.550781 -14.609375 15.6875 -14.609375 C 15.945312 -14.628906 16.226562 -14.601562 16.53125 -14.53125 C 16.832031 -14.46875 17.003906 -14.394531 17.046875 -14.3125 C 17.117188 -14.207031 17.1875 -14.15625 17.25 -14.15625 C 17.3125 -14.15625 17.320312 -14.117188 17.28125 -14.046875 C 17.257812 -13.960938 17.351562 -13.8125 17.5625 -13.59375 C 17.769531 -13.375 17.925781 -13.242188 18.03125 -13.203125 C 18.132812 -13.160156 18.203125 -13.054688 18.234375 -12.890625 C 18.273438 -12.734375 18.304688 -12.613281 18.328125 -12.53125 C 18.347656 -12.457031 18.269531 -12.398438 18.09375 -12.359375 C 16.875 -12.203125 16.234375 -12.082031 16.171875 -12 C 16.148438 -11.9375 16.269531 -11.796875 16.53125 -11.578125 C 16.707031 -11.378906 16.851562 -11.269531 16.96875 -11.25 C 17.09375 -11.226562 17.394531 -11.269531 17.875 -11.375 C 18.113281 -11.425781 18.484375 -11.484375 18.984375 -11.546875 C 19.484375 -11.609375 19.875 -11.671875 20.15625 -11.734375 C 20.375 -11.753906 20.710938 -11.710938 21.171875 -11.609375 C 21.640625 -11.503906 21.921875 -11.414062 22.015625 -11.34375 C 22.054688 -11.300781 22.160156 -11.222656 22.328125 -11.109375 C 22.503906 -11.003906 22.582031 -10.910156 22.5625 -10.828125 C 22.539062 -10.742188 22.597656 -10.613281 22.734375 -10.4375 C 22.878906 -10.257812 22.988281 -10.160156 23.0625 -10.140625 C 23.207031 -10.078125 23.28125 -9.9375 23.28125 -9.71875 C 23.28125 -9.5 23.3125 -9.359375 23.375 -9.296875 C 23.445312 -9.234375 23.460938 -9.175781 23.421875 -9.125 C 23.390625 -9.082031 22.957031 -9.054688 22.125 -9.046875 C 21.289062 -9.035156 20.625 -8.988281 20.125 -8.90625 C 19.625 -8.832031 19.351562 -8.796875 19.3125 -8.796875 C 19.15625 -8.796875 19.367188 -8.425781 19.953125 -7.6875 C 20.390625 -7.101562 20.6875 -6.722656 20.84375 -6.546875 C 21.40625 -5.941406 21.71875 -5.578125 21.78125 -5.453125 C 21.800781 -5.378906 22.148438 -5.03125 22.828125 -4.40625 C 23.734375 -3.550781 25.015625 -2.625 26.671875 -1.625 C 27.015625 -1.40625 27.1875 -1.273438 27.1875 -1.234375 C 27.144531 -1.128906 27.195312 -0.953125 27.34375 -0.703125 C 27.488281 -0.453125 27.644531 -0.257812 27.8125 -0.125 C 28.144531 0.15625 28.203125 0.296875 27.984375 0.296875 C 27.929688 0.296875 27.863281 0.285156 27.78125 0.265625 L 27.390625 0.1875 L 27.75 0.359375 C 27.945312 0.484375 28.117188 0.675781 28.265625 0.9375 C 28.421875 1.207031 28.5 1.351562 28.5 1.375 C 28.5 1.414062 28.363281 1.40625 28.09375 1.34375 C 27.820312 1.289062 27.515625 1.21875 27.171875 1.125 C 26.835938 1.03125 26.550781 0.945312 26.3125 0.875 C 25.726562 0.664062 25.320312 0.578125 25.09375 0.609375 C 24.863281 0.640625 24.75 0.601562 24.75 0.5 C 24.75 0.40625 24.691406 0.382812 24.578125 0.4375 C 24.472656 0.488281 24.320312 0.503906 24.125 0.484375 C 23.9375 0.460938 23.832031 0.429688 23.8125 0.390625 C 23.78125 0.328125 23.742188 0.296875 23.703125 0.296875 C 23.554688 0.296875 23.085938 -0.0976562 22.296875 -0.890625 C 21.515625 -1.691406 20.953125 -2.328125 20.609375 -2.796875 C 20.492188 -2.953125 20.394531 -3.078125 20.3125 -3.171875 C 20.226562 -3.273438 20.078125 -3.457031 19.859375 -3.71875 C 19.597656 -4.082031 19.425781 -4.242188 19.34375 -4.203125 C 19.289062 -4.160156 19.300781 -2.226562 19.375 1.59375 C 19.394531 2.789062 19.378906 3.585938 19.328125 3.984375 C 19.285156 4.390625 19.25 4.734375 19.21875 5.015625 C 19.1875 5.304688 19.128906 5.484375 19.046875 5.546875 C 18.972656 5.609375 18.90625 5.789062 18.84375 6.09375 C 18.738281 6.40625 18.664062 6.5625 18.625 6.5625 C 18.601562 6.550781 18.578125 6.503906 18.546875 6.421875 C 18.503906 6.335938 18.382812 6.253906 18.1875 6.171875 C 18 6.097656 17.835938 6 17.703125 5.875 C 17.273438 5.519531 17.035156 5.304688 16.984375 5.234375 C 16.941406 5.160156 16.921875 5.015625 16.921875 4.796875 C 16.878906 4.421875 16.738281 4.203125 16.5 4.140625 C 16.257812 4.078125 15.800781 4.144531 15.125 4.34375 C 14.300781 4.601562 13.789062 4.875 13.59375 5.15625 C 13.445312 5.320312 13.300781 5.375 13.15625 5.3125 C 13.007812 5.25 12.832031 5.113281 12.625 4.90625 C 12.425781 4.695312 12.203125 4.535156 11.953125 4.421875 C 11.703125 4.316406 11.566406 4.191406 11.546875 4.046875 C 11.472656 3.691406 11.3125 3.515625 11.0625 3.515625 C 10.945312 3.515625 10.867188 3.363281 10.828125 3.0625 C 10.765625 2.695312 10.738281 2.1875 10.75 1.53125 C 10.757812 0.875 10.796875 0.363281 10.859375 0 C 10.960938 -0.414062 11.023438 -0.773438 11.046875 -1.078125 L 11.09375 -2.015625 C 11.09375 -2.472656 11.054688 -2.691406 10.984375 -2.671875 C 10.960938 -2.648438 10.882812 -2.539062 10.75 -2.34375 C 10.625 -2.15625 10.5625 -2.03125 10.5625 -1.96875 C 10.5625 -1.914062 10.523438 -1.851562 10.453125 -1.78125 C 10.378906 -1.71875 10.234375 -1.523438 10.015625 -1.203125 C 9.578125 -0.554688 8.835938 0.144531 7.796875 0.90625 C 6.921875 1.582031 6.390625 1.910156 6.203125 1.890625 C 6.109375 1.847656 6.003906 1.859375 5.890625 1.921875 C 5.785156 1.984375 5.625 2.050781 5.40625 2.125 C 5.195312 2.207031 5.007812 2.328125 4.84375 2.484375 C 4.675781 2.648438 4.546875 2.734375 4.453125 2.734375 C 4.359375 2.734375 4.265625 2.78125 4.171875 2.875 C 3.972656 3 3.875 2.976562 3.875 2.8125 C 3.925781 2.570312 3.695312 2.582031 3.1875 2.84375 C 2.9375 2.988281 2.75 3.039062 2.625 3 C 2.5 2.957031 2.453125 2.847656 2.484375 2.671875 C 2.484375 2.609375 2.476562 2.550781 2.46875 2.5 C 2.457031 2.457031 2.425781 2.429688 2.375 2.421875 C 2.332031 2.410156 2.273438 2.410156 2.203125 2.421875 C 2.128906 2.441406 2.035156 2.492188 1.921875 2.578125 C 1.703125 2.679688 1.570312 2.722656 1.53125 2.703125 C 1.425781 2.617188 1.550781 2.382812 1.90625 2 C 2.257812 1.625 2.753906 1.1875 3.390625 0.6875 C 5.253906 -0.707031 6.34375 -1.65625 6.65625 -2.15625 C 6.84375 -2.414062 7.085938 -2.703125 7.390625 -3.015625 C 7.703125 -3.328125 7.859375 -3.503906 7.859375 -3.546875 C 7.859375 -3.597656 7.921875 -3.707031 8.046875 -3.875 C 8.179688 -4.070312 8.46875 -4.507812 8.90625 -5.1875 C 9.34375 -5.863281 9.5625 -6.210938 9.5625 -6.234375 C 9.507812 -6.273438 9.351562 -6.234375 9.09375 -6.109375 C 8.832031 -5.992188 8.582031 -5.878906 8.34375 -5.765625 C 8.019531 -5.546875 7.800781 -5.472656 7.6875 -5.546875 C 7.582031 -5.628906 7.507812 -5.710938 7.46875 -5.796875 C 7.425781 -5.890625 7.289062 -6.007812 7.0625 -6.15625 C 6.832031 -6.3125 6.671875 -6.457031 6.578125 -6.59375 C 6.492188 -6.738281 6.378906 -6.847656 6.234375 -6.921875 C 6.097656 -7.003906 6.046875 -7.070312 6.078125 -7.125 C 6.109375 -7.175781 6.050781 -7.238281 5.90625 -7.3125 C 5.664062 -7.5 5.628906 -7.613281 5.796875 -7.65625 C 5.953125 -7.65625 5.988281 -7.679688 5.90625 -7.734375 C 5.882812 -7.796875 5.828125 -7.835938 5.734375 -7.859375 C 5.609375 -7.921875 5.535156 -8.03125 5.515625 -8.1875 C 5.492188 -8.363281 5.519531 -8.476562 5.59375 -8.53125 C 5.664062 -8.582031 5.8125 -8.578125 6.03125 -8.515625 C 6.269531 -8.441406 6.664062 -8.46875 7.21875 -8.59375 C 7.78125 -8.726562 8.113281 -8.8125 8.21875 -8.84375 C 8.300781 -8.882812 8.59375 -8.984375 9.09375 -9.140625 C 9.59375 -9.304688 9.875 -9.410156 9.9375 -9.453125 C 10.03125 -9.453125 10.117188 -9.46875 10.203125 -9.5 C 10.296875 -9.53125 10.578125 -9.59375 11.046875 -9.6875 C 11.398438 -9.769531 11.632812 -9.835938 11.75 -9.890625 C 11.875 -9.953125 11.945312 -10.085938 11.96875 -10.296875 C 12.007812 -10.410156 12.015625 -10.492188 11.984375 -10.546875 C 11.953125 -10.597656 11.859375 -10.648438 11.703125 -10.703125 C 11.460938 -10.804688 11.160156 -10.976562 10.796875 -11.21875 C 10.441406 -11.457031 10.222656 -11.628906 10.140625 -11.734375 C 10.097656 -11.804688 10.078125 -11.851562 10.078125 -11.875 C 10.078125 -11.894531 10.109375 -11.90625 10.171875 -11.90625 C 10.285156 -11.90625 10.234375 -12.003906 10.015625 -12.203125 C 9.679688 -12.523438 9.59375 -12.71875 9.75 -12.78125 C 9.789062 -12.78125 9.9375 -12.789062 10.1875 -12.8125 C 10.4375 -12.832031 10.789062 -12.953125 11.25 -13.171875 C 11.988281 -13.523438 12.5 -13.753906 12.78125 -13.859375 C 13.101562 -13.941406 13.265625 -14.125 13.265625 -14.40625 C 13.265625 -14.519531 12.984375 -14.4375 12.421875 -14.15625 C 12.078125 -14 11.828125 -13.945312 11.671875 -14 C 11.515625 -14.0625 11.082031 -14.363281 10.375 -14.90625 C 10.175781 -15.09375 10.007812 -15.222656 9.875 -15.296875 C 9.75 -15.378906 9.644531 -15.5 9.5625 -15.65625 C 9.488281 -15.800781 9.453125 -15.882812 9.453125 -15.90625 C 9.453125 -15.925781 9.488281 -15.9375 9.5625 -15.9375 C 9.664062 -15.9375 9.628906 -16.015625 9.453125 -16.171875 C 8.992188 -16.585938 8.882812 -16.835938 9.125 -16.921875 C 9.175781 -16.941406 9.285156 -16.929688 9.453125 -16.890625 C 9.648438 -16.828125 9.878906 -16.835938 10.140625 -16.921875 L 10.984375 -17.15625 C 11.285156 -17.257812 11.515625 -17.34375 11.671875 -17.40625 C 11.828125 -17.476562 12.175781 -17.609375 12.71875 -17.796875 L 13.5625 -18.0625 L 13.59375 -19.4375 C 13.59375 -20.351562 13.550781 -21.109375 13.46875 -21.703125 C 13.382812 -22.296875 13.328125 -22.722656 13.296875 -22.984375 C 13.273438 -23.242188 13.160156 -23.515625 12.953125 -23.796875 C 12.835938 -24.035156 12.769531 -24.179688 12.75 -24.234375 Z M 15 -11.0625 C 14.914062 -11.582031 14.828125 -11.601562 14.734375 -11.125 C 14.710938 -11.082031 14.703125 -11.035156 14.703125 -10.984375 L 14.640625 -10.625 L 14.84375 -10.703125 C 15.007812 -10.742188 15.0625 -10.863281 15 -11.0625 Z M 16.828125 -7.984375 C 16.710938 -8.097656 16.597656 -8.148438 16.484375 -8.140625 C 16.367188 -8.128906 16.035156 -8.035156 15.484375 -7.859375 C 14.835938 -7.640625 14.4375 -7.53125 14.28125 -7.53125 C 13.800781 -7.53125 13.476562 -7.378906 13.3125 -7.078125 C 13.21875 -6.878906 13.171875 -6.726562 13.171875 -6.625 C 13.171875 -6.550781 13.117188 -6.414062 13.015625 -6.21875 C 12.921875 -6.03125 12.851562 -5.925781 12.8125 -5.90625 C 12.75 -5.882812 12.71875 -5.84375 12.71875 -5.78125 C 12.71875 -5.726562 12.617188 -5.539062 12.421875 -5.21875 C 12.117188 -4.738281 12.039062 -4.5 12.1875 -4.5 C 12.21875 -4.5 12.503906 -4.628906 13.046875 -4.890625 C 14.367188 -5.546875 15.289062 -5.894531 15.8125 -5.9375 C 15.894531 -5.9375 15.992188 -5.988281 16.109375 -6.09375 C 16.234375 -6.207031 16.4375 -6.238281 16.71875 -6.1875 C 17.007812 -6.144531 17.164062 -6.117188 17.1875 -6.109375 C 17.207031 -6.097656 17.3125 -6.066406 17.5 -6.015625 C 17.695312 -5.960938 17.867188 -5.867188 18.015625 -5.734375 C 18.160156 -5.609375 18.273438 -5.5625 18.359375 -5.59375 C 18.441406 -5.625 18.441406 -5.71875 18.359375 -5.875 C 17.941406 -6.5 17.5625 -7.007812 17.21875 -7.40625 C 17.082031 -7.59375 17.015625 -7.707031 17.015625 -7.75 C 17.015625 -7.800781 16.953125 -7.878906 16.828125 -7.984375 Z M 16.34375 -4.234375 C 16.3125 -4.367188 15.984375 -4.296875 15.359375 -4.015625 C 14.578125 -3.660156 13.925781 -3.484375 13.40625 -3.484375 C 13.25 -3.484375 13.160156 -3.46875 13.140625 -3.4375 C 13.117188 -3.40625 13.140625 -3.347656 13.203125 -3.265625 C 13.335938 -3.023438 13.4375 -2.644531 13.5 -2.125 C 13.519531 -1.8125 13.550781 -1.65625 13.59375 -1.65625 C 13.632812 -1.65625 13.914062 -1.734375 14.4375 -1.890625 C 14.9375 -2.066406 15.300781 -2.15625 15.53125 -2.15625 C 15.757812 -2.15625 15.921875 -2.066406 16.015625 -1.890625 C 16.117188 -1.648438 16.300781 -1.53125 16.5625 -1.53125 C 16.582031 -1.59375 16.59375 -1.742188 16.59375 -1.984375 C 16.59375 -2.222656 16.582031 -2.5 16.5625 -2.8125 C 16.539062 -3.132812 16.519531 -3.316406 16.5 -3.359375 C 16.476562 -3.460938 16.453125 -3.609375 16.421875 -3.796875 C 16.390625 -3.984375 16.363281 -4.128906 16.34375 -4.234375 Z M 16.59375 0.59375 C 16.613281 0.414062 16.625 0.257812 16.625 0.125 C 16.625 0 16.617188 -0.0976562 16.609375 -0.171875 C 16.597656 -0.253906 16.585938 -0.3125 16.578125 -0.34375 C 16.566406 -0.375 16.550781 -0.390625 16.53125 -0.390625 C 16.226562 -0.347656 15.726562 -0.195312 15.03125 0.0625 C 14.570312 0.238281 14.191406 0.335938 13.890625 0.359375 L 13.46875 0.390625 L 13.375 1.140625 C 13.332031 1.660156 13.3125 1.960938 13.3125 2.046875 C 13.3125 2.117188 13.34375 2.15625 13.40625 2.15625 C 13.488281 2.15625 13.832031 2.109375 14.4375 2.015625 C 14.945312 1.972656 15.222656 1.914062 15.265625 1.84375 C 15.304688 1.769531 15.445312 1.765625 15.6875 1.828125 C 15.90625 1.890625 16.101562 1.90625 16.28125 1.875 C 16.46875 1.84375 16.5625 1.796875 16.5625 1.734375 C 16.5625 1.679688 16.570312 1.300781 16.59375 0.59375 Z M 16.59375 0.59375 "/></g></g></g><g fill="#000000" fill-opacity="1"><g transform="translate(749.972867, 412.950028)"><g><path d="M 15.421875 -21.875 C 15.515625 -21.925781 15.675781 -21.953125 15.90625 -21.953125 C 16.144531 -21.953125 16.304688 -21.929688 16.390625 -21.890625 C 16.484375 -21.859375 16.660156 -21.820312 16.921875 -21.78125 C 17.179688 -21.738281 17.390625 -21.6875 17.546875 -21.625 C 17.785156 -21.507812 17.984375 -21.234375 18.140625 -20.796875 C 18.304688 -20.367188 18.390625 -19.882812 18.390625 -19.34375 C 18.390625 -18.882812 18.410156 -18.65625 18.453125 -18.65625 C 18.492188 -18.65625 18.644531 -18.707031 18.90625 -18.8125 C 19.175781 -18.925781 19.363281 -19.023438 19.46875 -19.109375 C 19.625 -19.210938 19.828125 -19.265625 20.078125 -19.265625 C 20.328125 -19.265625 20.539062 -19.207031 20.71875 -19.09375 C 20.90625 -18.988281 21 -18.894531 21 -18.8125 C 21 -18.726562 21.140625 -18.644531 21.421875 -18.5625 C 21.597656 -18.507812 21.71875 -18.453125 21.78125 -18.390625 C 21.84375 -18.328125 21.898438 -18.21875 21.953125 -18.0625 C 22.054688 -17.78125 22.128906 -17.613281 22.171875 -17.5625 C 22.210938 -17.507812 22.234375 -17.375 22.234375 -17.15625 L 22.265625 -16.796875 C 22.265625 -16.640625 22.179688 -16.359375 22.015625 -15.953125 C 21.859375 -15.554688 21.71875 -15.328125 21.59375 -15.265625 C 21.570312 -15.242188 21.488281 -15.050781 21.34375 -14.6875 C 21.195312 -14.332031 21.125 -14.132812 21.125 -14.09375 C 21.125 -14.070312 21.210938 -14.023438 21.390625 -13.953125 C 21.566406 -13.890625 21.726562 -13.847656 21.875 -13.828125 C 22.289062 -13.742188 22.5 -13.601562 22.5 -13.40625 C 22.5 -13.25 22.625 -13.117188 22.875 -13.015625 C 23.125 -12.921875 23.234375 -12.804688 23.203125 -12.671875 C 23.171875 -12.546875 23.21875 -12.410156 23.34375 -12.265625 C 23.476562 -12.128906 23.503906 -12.050781 23.421875 -12.03125 C 23.347656 -12.007812 23.28125 -11.78125 23.21875 -11.34375 L 23.046875 -10.40625 C 22.921875 -9.789062 22.726562 -9.113281 22.46875 -8.375 C 22.332031 -7.96875 22.273438 -7.75 22.296875 -7.71875 C 22.328125 -7.695312 22.304688 -7.644531 22.234375 -7.5625 C 22.171875 -7.476562 22.171875 -7.414062 22.234375 -7.375 C 22.390625 -7.28125 22.289062 -7.171875 21.9375 -7.046875 C 21.707031 -6.984375 21.128906 -6.765625 20.203125 -6.390625 C 19.273438 -6.023438 18.757812 -5.816406 18.65625 -5.765625 C 18.476562 -5.640625 18.363281 -4.96875 18.3125 -3.75 C 18.257812 -2.53125 18.316406 -1.691406 18.484375 -1.234375 C 18.554688 -1.066406 18.6875 -0.835938 18.875 -0.546875 C 19.070312 -0.265625 19.226562 -0.0625 19.34375 0.0625 C 19.769531 0.414062 20.582031 0.601562 21.78125 0.625 C 23.257812 0.664062 24.285156 0.398438 24.859375 -0.171875 C 25.441406 -0.753906 25.882812 -2 26.1875 -3.90625 C 26.3125 -4.457031 26.398438 -4.882812 26.453125 -5.1875 L 26.546875 -5.640625 L 26.546875 -5.09375 C 26.585938 -4.757812 26.628906 -4.59375 26.671875 -4.59375 C 26.734375 -4.613281 26.800781 -4.953125 26.875 -5.609375 L 27 -6.234375 C 27 -6.078125 27.03125 -5.960938 27.09375 -5.890625 C 27.164062 -5.828125 27.222656 -5.484375 27.265625 -4.859375 C 27.304688 -4.242188 27.375 -3.921875 27.46875 -3.890625 C 27.570312 -3.859375 27.617188 -3.644531 27.609375 -3.25 C 27.597656 -2.863281 27.601562 -2.34375 27.625 -1.6875 C 27.664062 -1.101562 27.71875 -0.8125 27.78125 -0.8125 C 27.820312 -0.832031 27.847656 -0.800781 27.859375 -0.71875 C 27.867188 -0.632812 27.875 -0.4375 27.875 -0.125 C 27.851562 0.375 27.890625 0.726562 27.984375 0.9375 C 28.085938 1.15625 28.128906 1.332031 28.109375 1.46875 C 28.085938 1.613281 28.078125 1.75 28.078125 1.875 C 28.078125 2 28.03125 2.0625 27.9375 2.0625 C 27.851562 2.0625 27.8125 2.09375 27.8125 2.15625 C 27.8125 2.21875 27.675781 2.382812 27.40625 2.65625 C 27.132812 2.925781 26.976562 3.03125 26.9375 2.96875 C 26.875 2.945312 26.84375 2.957031 26.84375 3 C 26.84375 3.101562 26.785156 3.191406 26.671875 3.265625 C 26.566406 3.347656 26.46875 3.390625 26.375 3.390625 C 26.226562 3.390625 26.101562 3.429688 26 3.515625 C 25.90625 3.609375 25.859375 3.617188 25.859375 3.546875 C 25.859375 3.484375 25.832031 3.453125 25.78125 3.453125 C 25.726562 3.453125 25.703125 3.5 25.703125 3.59375 C 25.703125 3.65625 25.671875 3.695312 25.609375 3.71875 C 25.554688 3.738281 25.398438 3.757812 25.140625 3.78125 C 24.960938 3.800781 24.800781 3.820312 24.65625 3.84375 C 24.132812 3.976562 23.414062 4 22.5 3.90625 C 21.875 3.84375 21.523438 3.8125 21.453125 3.8125 C 21.066406 3.789062 20.535156 3.628906 19.859375 3.328125 C 19.597656 3.210938 19.203125 2.894531 18.671875 2.375 C 18.140625 1.851562 17.804688 1.441406 17.671875 1.140625 C 17.566406 0.921875 17.492188 0.757812 17.453125 0.65625 C 17.160156 0.132812 16.960938 -0.5625 16.859375 -1.4375 C 16.835938 -1.757812 16.796875 -1.921875 16.734375 -1.921875 C 16.679688 -1.921875 16.65625 -1.898438 16.65625 -1.859375 C 16.65625 -1.773438 16.40625 -1.195312 15.90625 -0.125 C 15.757812 0.175781 15.6875 0.34375 15.6875 0.375 C 15.6875 0.40625 15.625 0.503906 15.5 0.671875 C 15.382812 0.847656 15.328125 1.003906 15.328125 1.140625 C 15.285156 1.242188 15.253906 1.296875 15.234375 1.296875 C 15.210938 1.273438 15.171875 1.300781 15.109375 1.375 C 15.054688 1.457031 15.007812 1.539062 14.96875 1.625 C 14.925781 1.71875 14.90625 1.785156 14.90625 1.828125 C 14.90625 1.910156 14.835938 1.976562 14.703125 2.03125 C 14.578125 2.09375 14.40625 2.335938 14.1875 2.765625 C 13.882812 3.285156 13.65625 3.550781 13.5 3.5625 C 13.457031 3.5625 13.414062 3.425781 13.375 3.15625 C 13.332031 2.769531 13.222656 2.367188 13.046875 1.953125 C 12.910156 1.648438 12.890625 1.4375 12.984375 1.3125 C 13.085938 1.238281 13.070312 1.179688 12.9375 1.140625 C 12.8125 1.117188 12.738281 1.078125 12.71875 1.015625 C 12.78125 0.992188 12.832031 0.96875 12.875 0.9375 C 12.945312 0.9375 12.984375 0.867188 12.984375 0.734375 C 12.984375 0.609375 13.019531 0.523438 13.09375 0.484375 C 13.164062 0.441406 13.191406 0.332031 13.171875 0.15625 C 13.148438 -0.0078125 13.109375 -0.09375 13.046875 -0.09375 C 12.972656 -0.113281 12.988281 -0.148438 13.09375 -0.203125 C 13.207031 -0.265625 13.265625 -0.335938 13.265625 -0.421875 C 13.265625 -0.503906 13.300781 -0.5625 13.375 -0.59375 C 13.539062 -0.695312 13.859375 -1.238281 14.328125 -2.21875 C 14.796875 -3.195312 14.988281 -3.71875 14.90625 -3.78125 C 14.882812 -3.820312 14.625 -3.738281 14.125 -3.53125 C 13.625 -3.332031 13.300781 -3.21875 13.15625 -3.1875 C 13.007812 -3.164062 12.8125 -3.125 12.5625 -3.0625 C 12.0625 -2.914062 11.691406 -2.945312 11.453125 -3.15625 C 11.398438 -3.207031 11.367188 -3.21875 11.359375 -3.1875 C 11.347656 -3.164062 11.34375 -3.125 11.34375 -3.0625 C 11.320312 -2.363281 11.210938 -1.03125 11.015625 0.9375 L 10.921875 1.4375 L 10.796875 1.109375 C 10.753906 0.992188 10.691406 0.882812 10.609375 0.78125 C 10.535156 0.675781 10.460938 0.601562 10.390625 0.5625 C 10.328125 0.53125 10.273438 0.523438 10.234375 0.546875 C 10.210938 0.554688 10.097656 0.460938 9.890625 0.265625 C 9.691406 0.0664062 9.488281 -0.15625 9.28125 -0.40625 C 9.070312 -0.65625 8.945312 -0.832031 8.90625 -0.9375 C 8.84375 -1.09375 8.796875 -1.179688 8.765625 -1.203125 C 8.742188 -1.222656 8.671875 -1.222656 8.546875 -1.203125 C 8.410156 -1.179688 7.835938 -0.832031 6.828125 -0.15625 C 5.816406 0.507812 5.269531 0.84375 5.1875 0.84375 C 5.101562 0.84375 5.0625 0.875 5.0625 0.9375 C 5.050781 0.988281 4.832031 1.175781 4.40625 1.5 C 3.988281 1.820312 3.757812 1.984375 3.71875 1.984375 C 3.675781 1.984375 3.546875 1.84375 3.328125 1.5625 C 3.109375 1.28125 2.96875 1.0625 2.90625 0.90625 C 2.832031 0.738281 2.769531 0.65625 2.71875 0.65625 C 2.664062 0.65625 2.570312 0.601562 2.4375 0.5 C 2.3125 0.40625 2.28125 0.316406 2.34375 0.234375 C 2.476562 0.015625 2.46875 -0.148438 2.3125 -0.265625 C 2.25 -0.328125 2.21875 -0.394531 2.21875 -0.46875 C 2.21875 -0.550781 2.171875 -0.628906 2.078125 -0.703125 C 1.992188 -0.773438 1.9375 -0.878906 1.90625 -1.015625 C 1.875 -1.160156 1.890625 -1.28125 1.953125 -1.375 C 2.046875 -1.539062 2.1875 -1.519531 2.375 -1.3125 C 2.488281 -1.21875 2.59375 -1.171875 2.6875 -1.171875 C 2.789062 -1.171875 2.984375 -1.238281 3.265625 -1.375 L 3.75 -1.5625 L 3.6875 -1.921875 C 3.570312 -2.421875 3.441406 -2.71875 3.296875 -2.8125 C 3.253906 -2.832031 3.285156 -3.082031 3.390625 -3.5625 C 3.472656 -4.125 3.5625 -5.71875 3.65625 -8.34375 C 3.71875 -9.675781 3.769531 -10.75 3.8125 -11.5625 C 3.851562 -12.375 3.863281 -12.859375 3.84375 -13.015625 C 3.78125 -13.140625 3.617188 -13.34375 3.359375 -13.625 C 3.097656 -13.90625 2.910156 -14.0625 2.796875 -14.09375 C 2.734375 -14.113281 2.671875 -14.171875 2.609375 -14.265625 C 2.546875 -14.359375 2.535156 -14.414062 2.578125 -14.4375 C 2.597656 -14.46875 2.800781 -14.410156 3.1875 -14.265625 C 3.582031 -14.128906 3.878906 -14.015625 4.078125 -13.921875 C 4.253906 -13.835938 4.378906 -13.742188 4.453125 -13.640625 C 4.523438 -13.546875 4.582031 -13.5 4.625 -13.5 C 4.675781 -13.5 5.222656 -13.785156 6.265625 -14.359375 C 7.304688 -14.941406 8.003906 -15.285156 8.359375 -15.390625 C 8.722656 -15.492188 8.90625 -15.566406 8.90625 -15.609375 C 8.90625 -15.660156 8.953125 -15.6875 9.046875 -15.6875 C 9.140625 -15.6875 9.1875 -15.71875 9.1875 -15.78125 C 9.1875 -15.78125 9.191406 -15.78125 9.203125 -15.78125 C 9.222656 -15.78125 9.265625 -15.773438 9.328125 -15.765625 C 9.390625 -15.753906 9.453125 -15.738281 9.515625 -15.71875 C 9.753906 -15.613281 9.875 -15.535156 9.875 -15.484375 C 9.875 -15.335938 10.03125 -15.285156 10.34375 -15.328125 C 10.40625 -15.328125 10.597656 -15.28125 10.921875 -15.1875 C 11.140625 -15.101562 11.28125 -15.03125 11.34375 -14.96875 C 11.40625 -14.90625 11.441406 -14.828125 11.453125 -14.734375 C 11.472656 -14.628906 11.5 -14.5625 11.53125 -14.53125 C 11.5625 -14.5 11.609375 -14.484375 11.671875 -14.484375 C 11.734375 -14.503906 11.769531 -14.492188 11.78125 -14.453125 C 11.789062 -14.421875 11.796875 -14.351562 11.796875 -14.25 C 11.773438 -14.03125 11.835938 -13.863281 11.984375 -13.75 C 12.128906 -13.644531 12.1875 -13.539062 12.15625 -13.4375 C 12.132812 -13.34375 12.101562 -13.265625 12.0625 -13.203125 C 12.0625 -13.097656 12 -12.960938 11.875 -12.796875 C 11.757812 -12.628906 11.660156 -12.546875 11.578125 -12.546875 C 11.441406 -12.546875 11.3125 -12.210938 11.1875 -11.546875 C 11.144531 -11.367188 11.117188 -10.535156 11.109375 -9.046875 C 11.097656 -7.554688 11.101562 -6.5625 11.125 -6.0625 C 11.1875 -5.644531 11.226562 -5.394531 11.25 -5.3125 C 11.269531 -5.226562 11.332031 -5.195312 11.4375 -5.21875 C 11.59375 -5.21875 11.976562 -5.359375 12.59375 -5.640625 L 13.53125 -6.0625 L 13.4375 -6.328125 C 13.394531 -6.546875 13.363281 -7.347656 13.34375 -8.734375 C 13.320312 -9.867188 13.203125 -10.535156 12.984375 -10.734375 C 12.929688 -10.816406 12.90625 -10.890625 12.90625 -10.953125 C 12.90625 -11.046875 12.820312 -11.203125 12.65625 -11.421875 C 12.5 -11.648438 12.347656 -11.800781 12.203125 -11.875 C 11.890625 -12.082031 11.800781 -12.265625 11.9375 -12.421875 C 12 -12.503906 12.125 -12.515625 12.3125 -12.453125 C 12.5 -12.390625 12.675781 -12.359375 12.84375 -12.359375 C 13.175781 -12.359375 13.554688 -12.171875 13.984375 -11.796875 C 14.078125 -11.691406 14.15625 -11.632812 14.21875 -11.625 C 14.28125 -11.613281 14.398438 -11.628906 14.578125 -11.671875 C 14.835938 -11.765625 15 -11.828125 15.0625 -11.859375 C 15.125 -11.890625 15.25 -11.953125 15.4375 -12.046875 C 15.625 -12.140625 15.835938 -12.222656 16.078125 -12.296875 L 17.21875 -12.78125 L 18 -13.109375 L 18.265625 -13.6875 C 18.460938 -14.082031 18.597656 -14.375 18.671875 -14.5625 C 18.742188 -14.75 18.890625 -15.066406 19.109375 -15.515625 C 19.410156 -16.085938 19.488281 -16.375 19.34375 -16.375 C 19.34375 -16.375 19.328125 -16.363281 19.296875 -16.34375 C 19.191406 -16.289062 18.878906 -16.171875 18.359375 -15.984375 L 17.546875 -15.6875 L 17.25 -15.0625 C 17.09375 -14.71875 16.875 -14.34375 16.59375 -13.9375 C 16.3125 -13.539062 16.140625 -13.34375 16.078125 -13.34375 C 15.992188 -13.34375 15.96875 -13.304688 16 -13.234375 C 16.03125 -13.171875 15.976562 -13.109375 15.84375 -13.046875 C 15.71875 -12.984375 15.632812 -12.875 15.59375 -12.71875 C 15.59375 -12.675781 15.570312 -12.632812 15.53125 -12.59375 C 15.5 -12.5625 15.472656 -12.546875 15.453125 -12.546875 C 15.429688 -12.546875 15.410156 -12.535156 15.390625 -12.515625 C 15.367188 -12.492188 15.359375 -12.472656 15.359375 -12.453125 C 15.359375 -12.347656 15.300781 -12.265625 15.1875 -12.203125 C 15.082031 -12.148438 14.957031 -12.125 14.8125 -12.125 C 14.71875 -12.164062 14.671875 -12.226562 14.671875 -12.3125 C 14.671875 -12.40625 14.601562 -12.5625 14.46875 -12.78125 C 14.34375 -13 14.253906 -13.109375 14.203125 -13.109375 C 14.148438 -13.109375 14.125 -13.160156 14.125 -13.265625 C 14.125 -13.378906 14.0625 -13.492188 13.9375 -13.609375 C 13.820312 -13.734375 13.765625 -13.828125 13.765625 -13.890625 C 13.765625 -13.953125 13.738281 -14.019531 13.6875 -14.09375 C 13.5 -14.28125 13.476562 -14.453125 13.625 -14.609375 C 13.664062 -14.691406 13.640625 -14.78125 13.546875 -14.875 C 13.453125 -14.976562 13.457031 -15.082031 13.5625 -15.1875 C 13.644531 -15.28125 13.679688 -15.347656 13.671875 -15.390625 C 13.660156 -15.429688 13.582031 -15.453125 13.4375 -15.453125 C 13.351562 -15.453125 13.300781 -15.460938 13.28125 -15.484375 C 13.269531 -15.503906 13.28125 -15.582031 13.3125 -15.71875 C 13.375 -16.039062 13.515625 -16.203125 13.734375 -16.203125 C 13.796875 -16.203125 13.875 -16.3125 13.96875 -16.53125 C 14.070312 -16.75 14.238281 -17.015625 14.46875 -17.328125 C 14.695312 -17.648438 14.796875 -17.847656 14.765625 -17.921875 C 14.742188 -17.992188 14.8125 -18.097656 14.96875 -18.234375 C 15.09375 -18.359375 15.203125 -18.515625 15.296875 -18.703125 C 15.398438 -18.890625 15.429688 -19.023438 15.390625 -19.109375 C 15.367188 -19.148438 15.378906 -19.171875 15.421875 -19.171875 C 15.460938 -19.171875 15.488281 -19.269531 15.5 -19.46875 C 15.507812 -19.664062 15.53125 -19.90625 15.5625 -20.1875 C 15.601562 -20.46875 15.628906 -20.742188 15.640625 -21.015625 C 15.648438 -21.285156 15.585938 -21.429688 15.453125 -21.453125 C 15.328125 -21.453125 15.257812 -21.503906 15.25 -21.609375 C 15.238281 -21.722656 15.296875 -21.8125 15.421875 -21.875 Z M 8.375 -12.421875 C 8.375 -12.460938 8.363281 -12.492188 8.34375 -12.515625 C 8.320312 -12.535156 8.28125 -12.539062 8.21875 -12.53125 C 8.15625 -12.519531 8.070312 -12.488281 7.96875 -12.4375 C 7.875 -12.382812 7.738281 -12.316406 7.5625 -12.234375 C 7.144531 -12.054688 6.832031 -11.96875 6.625 -11.96875 C 6.46875 -11.96875 6.363281 -11.9375 6.3125 -11.875 C 6.257812 -11.820312 6.285156 -11.742188 6.390625 -11.640625 C 6.429688 -11.578125 6.410156 -11.066406 6.328125 -10.109375 C 6.242188 -9.148438 6.203125 -8.582031 6.203125 -8.40625 L 6.203125 -8.09375 L 6.453125 -8.28125 C 6.609375 -8.363281 6.988281 -8.570312 7.59375 -8.90625 L 8.453125 -9.453125 L 8.453125 -9.9375 C 8.472656 -11.394531 8.460938 -12.140625 8.421875 -12.171875 C 8.390625 -12.210938 8.375 -12.296875 8.375 -12.421875 Z M 20.875 -10.859375 C 20.9375 -11.359375 20.953125 -11.617188 20.921875 -11.640625 C 20.890625 -11.660156 20.625 -11.554688 20.125 -11.328125 C 19.625 -11.097656 19.335938 -10.984375 19.265625 -10.984375 C 19.179688 -10.984375 19.132812 -10.941406 19.125 -10.859375 C 19.113281 -10.773438 19.109375 -10.578125 19.109375 -10.265625 C 19.148438 -9.796875 19.128906 -9.425781 19.046875 -9.15625 C 18.929688 -8.789062 18.941406 -8.648438 19.078125 -8.734375 C 19.097656 -8.753906 19.128906 -8.78125 19.171875 -8.8125 C 19.285156 -8.9375 19.398438 -9 19.515625 -9 C 19.640625 -9 19.71875 -9.023438 19.75 -9.078125 C 19.78125 -9.128906 19.835938 -9.140625 19.921875 -9.109375 C 20.003906 -9.078125 20.101562 -9.109375 20.21875 -9.203125 C 20.28125 -9.285156 20.3125 -9.332031 20.3125 -9.34375 C 20.3125 -9.351562 20.269531 -9.347656 20.1875 -9.328125 C 19.945312 -9.265625 19.914062 -9.328125 20.09375 -9.515625 C 20.15625 -9.566406 20.238281 -9.644531 20.34375 -9.75 C 20.539062 -9.90625 20.660156 -10.035156 20.703125 -10.140625 C 20.742188 -10.242188 20.800781 -10.484375 20.875 -10.859375 Z M 16.859375 -8.671875 C 17.117188 -9.710938 17.128906 -10.203125 16.890625 -10.140625 C 16.828125 -10.117188 16.691406 -10.054688 16.484375 -9.953125 C 16.273438 -9.859375 16.050781 -9.769531 15.8125 -9.6875 L 15.390625 -9.546875 L 15.421875 -9.0625 C 15.441406 -7.863281 15.488281 -7.242188 15.5625 -7.203125 C 15.5625 -7.179688 15.742188 -7.257812 16.109375 -7.4375 L 16.625 -7.703125 Z M 8.546875 -5.4375 C 8.546875 -6.269531 8.53125 -6.773438 8.5 -6.953125 C 8.46875 -7.140625 8.425781 -7.234375 8.375 -7.234375 C 8.164062 -7.210938 7.972656 -7.082031 7.796875 -6.84375 C 7.554688 -6.539062 7.097656 -6.160156 6.421875 -5.703125 L 6.03125 -5.515625 L 5.96875 -4.59375 C 5.882812 -3.550781 5.882812 -2.988281 5.96875 -2.90625 C 6.007812 -2.863281 6.097656 -2.875 6.234375 -2.9375 C 6.378906 -3 6.5 -3.0625 6.59375 -3.125 C 6.695312 -3.238281 6.828125 -3.316406 6.984375 -3.359375 C 7.347656 -3.441406 7.53125 -3.601562 7.53125 -3.84375 C 7.53125 -3.957031 7.5625 -4.023438 7.625 -4.046875 C 7.695312 -4.066406 7.765625 -4.046875 7.828125 -3.984375 C 7.953125 -3.890625 8.085938 -3.867188 8.234375 -3.921875 C 8.378906 -3.984375 8.472656 -4.035156 8.515625 -4.078125 C 8.535156 -4.160156 8.546875 -4.613281 8.546875 -5.4375 Z M 8.546875 -5.4375 "/></g></g></g></svg>