<svg xmlns="http://www.w3.org/2000/svg" xmlns:xlink="http://www.w3.org/1999/xlink" width="170" zoomAndPan="magnify" viewBox="0 0 127.5 30.000001" height="40" preserveAspectRatio="xMidYMid meet" version="1.0"><defs><g/></defs><g fill="#000000" fill-opacity="1"><g transform="translate(14.799645, 21.307095)"><g><path d="M 14.109375 -18.46875 C 14.222656 -18.59375 14.554688 -18.585938 15.109375 -18.453125 C 15.671875 -18.316406 15.992188 -18.160156 16.078125 -17.984375 C 16.097656 -17.941406 16.15625 -17.894531 16.25 -17.84375 C 16.34375 -17.800781 16.378906 -17.734375 16.359375 -17.640625 C 16.347656 -17.554688 16.375 -17.515625 16.4375 -17.515625 C 16.46875 -17.515625 16.453125 -17.484375 16.390625 -17.421875 C 16.359375 -17.421875 16.335938 -17.410156 16.328125 -17.390625 C 16.191406 -17.335938 16.15625 -17.289062 16.21875 -17.25 C 16.269531 -17.226562 16.351562 -17.210938 16.46875 -17.203125 C 16.53125 -17.171875 16.550781 -17.082031 16.53125 -16.9375 C 16.519531 -16.800781 16.539062 -16.734375 16.59375 -16.734375 C 16.65625 -16.734375 16.6875 -16.710938 16.6875 -16.671875 C 16.695312 -16.628906 16.675781 -16.582031 16.625 -16.53125 C 16.570312 -16.488281 16.320312 -16.394531 15.875 -16.25 L 15.078125 -16 C 15.023438 -15.957031 15.0625 -15.875 15.1875 -15.75 C 15.3125 -15.625 15.375 -15.546875 15.375 -15.515625 C 15.40625 -15.273438 15.40625 -14.96875 15.375 -14.59375 C 15.257812 -13.75 15.203125 -13.050781 15.203125 -12.5 C 15.210938 -12.414062 15.1875 -12.109375 15.125 -11.578125 C 15.070312 -11.054688 15.0625 -10.773438 15.09375 -10.734375 C 15.132812 -10.703125 15.347656 -10.742188 15.734375 -10.859375 C 17.359375 -11.347656 18.289062 -11.476562 18.53125 -11.25 C 18.632812 -11.1875 18.726562 -11.15625 18.8125 -11.15625 C 18.957031 -11.15625 19.15625 -11.125 19.40625 -11.0625 C 19.664062 -11 19.820312 -10.929688 19.875 -10.859375 C 19.957031 -10.765625 20.15625 -10.671875 20.46875 -10.578125 C 20.707031 -10.472656 20.851562 -10.375 20.90625 -10.28125 C 20.96875 -10.195312 20.957031 -10.09375 20.875 -9.96875 C 20.8125 -9.832031 20.8125 -9.75 20.875 -9.71875 C 20.9375 -9.6875 20.921875 -9.644531 20.828125 -9.59375 C 20.617188 -9.550781 20.660156 -9.472656 20.953125 -9.359375 C 21.160156 -9.285156 21.101562 -9.226562 20.78125 -9.1875 C 20.644531 -9.164062 20.488281 -9.15625 20.3125 -9.15625 C 19.644531 -9.15625 19.015625 -8.984375 18.421875 -8.640625 C 18.253906 -8.535156 18.160156 -8.507812 18.140625 -8.5625 C 18.128906 -8.613281 18.03125 -8.628906 17.84375 -8.609375 C 17.65625 -8.585938 17.519531 -8.609375 17.4375 -8.671875 C 17.351562 -8.734375 17.25 -8.734375 17.125 -8.671875 C 17.007812 -8.609375 16.816406 -8.566406 16.546875 -8.546875 C 16.378906 -8.546875 16.171875 -8.515625 15.921875 -8.453125 C 15.671875 -8.390625 15.503906 -8.328125 15.421875 -8.265625 C 15.398438 -8.242188 15.429688 -8.207031 15.515625 -8.15625 C 15.691406 -8.03125 15.78125 -7.050781 15.78125 -5.21875 C 15.78125 -3.820312 15.757812 -2.925781 15.71875 -2.53125 C 15.550781 -1.070312 15.441406 -0.171875 15.390625 0.171875 C 15.347656 0.523438 15.253906 0.84375 15.109375 1.125 C 14.941406 1.507812 14.859375 1.722656 14.859375 1.765625 C 14.859375 1.816406 14.769531 1.9375 14.59375 2.125 C 14.414062 2.3125 14.25 2.515625 14.09375 2.734375 C 13.9375 2.953125 13.789062 3.085938 13.65625 3.140625 C 13.53125 3.191406 13.378906 3.332031 13.203125 3.5625 C 13.023438 3.800781 12.90625 3.921875 12.84375 3.921875 C 12.59375 3.921875 12.453125 3.546875 12.421875 2.796875 C 12.421875 2.535156 12.367188 2.28125 12.265625 2.03125 C 12.160156 1.78125 12.054688 1.609375 11.953125 1.515625 C 11.773438 1.367188 11.554688 1.140625 11.296875 0.828125 C 11.035156 0.515625 10.90625 0.328125 10.90625 0.265625 C 10.90625 0.203125 10.945312 0.1875 11.03125 0.21875 C 11.113281 0.25 11.273438 0.269531 11.515625 0.28125 C 11.765625 0.300781 11.929688 0.332031 12.015625 0.375 C 12.109375 0.414062 12.195312 0.421875 12.28125 0.390625 C 12.375 0.359375 12.460938 0.367188 12.546875 0.421875 C 12.703125 0.515625 12.859375 0.375 13.015625 0 C 13.085938 -0.226562 13.160156 -0.625 13.234375 -1.1875 C 13.304688 -1.757812 13.328125 -2.117188 13.296875 -2.265625 C 13.253906 -2.378906 13.179688 -2.410156 13.078125 -2.359375 L 12.984375 -2.3125 C 12.984375 -2.34375 13.023438 -2.382812 13.109375 -2.4375 C 13.222656 -2.53125 13.257812 -2.585938 13.21875 -2.609375 C 13.1875 -2.640625 12.988281 -2.523438 12.625 -2.265625 C 12.113281 -1.921875 11.335938 -1.523438 10.296875 -1.078125 C 10.117188 -0.972656 10.007812 -0.894531 9.96875 -0.84375 C 9.9375 -0.800781 9.898438 -0.707031 9.859375 -0.5625 C 9.828125 -0.238281 9.785156 -0.0703125 9.734375 -0.0625 C 9.691406 -0.0507812 9.582031 -0.171875 9.40625 -0.421875 C 9.144531 -0.722656 9 -0.9375 8.96875 -1.0625 C 8.9375 -1.195312 8.828125 -1.335938 8.640625 -1.484375 L 8.375 -1.703125 L 8.375 -3.65625 C 8.375 -4.914062 8.390625 -5.546875 8.421875 -5.546875 C 8.460938 -5.546875 8.53125 -5.515625 8.625 -5.453125 C 8.675781 -5.410156 8.753906 -5.40625 8.859375 -5.4375 C 8.960938 -5.46875 9.191406 -5.578125 9.546875 -5.765625 C 10.046875 -6.046875 10.488281 -6.265625 10.875 -6.421875 C 11.257812 -6.578125 11.476562 -6.671875 11.53125 -6.703125 C 11.59375 -6.742188 11.789062 -6.753906 12.125 -6.734375 C 12.46875 -6.710938 12.703125 -6.703125 12.828125 -6.703125 C 12.960938 -6.703125 13.117188 -6.648438 13.296875 -6.546875 L 13.515625 -6.453125 L 13.515625 -6 C 13.503906 -5.6875 13.460938 -5.5 13.390625 -5.4375 C 13.328125 -5.382812 13.28125 -5.210938 13.25 -4.921875 C 13.21875 -4.640625 13.234375 -4.484375 13.296875 -4.453125 C 13.378906 -4.390625 13.4375 -4.441406 13.46875 -4.609375 C 13.488281 -4.671875 13.503906 -4.765625 13.515625 -4.890625 C 13.535156 -5.203125 13.5625 -5.359375 13.59375 -5.359375 C 13.625 -5.359375 13.625 -5.632812 13.59375 -6.1875 C 13.570312 -6.738281 13.53125 -7.035156 13.46875 -7.078125 C 13.40625 -7.128906 13.363281 -7.238281 13.34375 -7.40625 C 13.332031 -7.582031 13.316406 -7.679688 13.296875 -7.703125 C 13.234375 -7.773438 12.804688 -7.679688 12.015625 -7.421875 L 11.078125 -7.140625 C 10.640625 -7.003906 10.285156 -6.875 10.015625 -6.75 C 9.085938 -6.3125 8 -5.910156 6.75 -5.546875 C 6.4375 -5.453125 6.09375 -5.40625 5.71875 -5.40625 C 5.351562 -5.40625 5.09375 -5.445312 4.9375 -5.53125 C 4.8125 -5.59375 4.75 -5.644531 4.75 -5.6875 C 4.75 -5.726562 4.679688 -5.773438 4.546875 -5.828125 C 4.410156 -5.890625 4.296875 -5.957031 4.203125 -6.03125 C 4.109375 -6.113281 4.015625 -6.179688 3.921875 -6.234375 C 3.835938 -6.296875 3.820312 -6.328125 3.875 -6.328125 C 4.03125 -6.328125 3.988281 -6.414062 3.75 -6.59375 C 3.695312 -6.644531 3.640625 -6.6875 3.578125 -6.71875 C 3.367188 -6.832031 3.265625 -6.90625 3.265625 -6.9375 C 3.265625 -7.070312 3.566406 -7.160156 4.171875 -7.203125 C 4.785156 -7.253906 5.960938 -7.613281 7.703125 -8.28125 C 8.523438 -8.625 8.988281 -8.800781 9.09375 -8.8125 C 9.238281 -8.882812 9.21875 -9 9.03125 -9.15625 C 8.914062 -9.269531 8.859375 -9.382812 8.859375 -9.5 C 8.859375 -9.59375 8.820312 -9.707031 8.75 -9.84375 C 8.675781 -9.988281 8.601562 -10.085938 8.53125 -10.140625 C 8.457031 -10.203125 8.421875 -10.46875 8.421875 -10.9375 C 8.421875 -11.976562 8.3125 -12.75 8.09375 -13.25 C 7.945312 -13.539062 7.875 -13.703125 7.875 -13.734375 C 7.882812 -13.753906 7.953125 -13.765625 8.078125 -13.765625 C 8.210938 -13.765625 8.359375 -13.75 8.515625 -13.71875 C 8.671875 -13.6875 8.769531 -13.660156 8.8125 -13.640625 C 8.863281 -13.585938 8.921875 -13.5625 8.984375 -13.5625 C 9.117188 -13.5625 9.273438 -13.382812 9.453125 -13.03125 L 9.59375 -12.8125 L 10.1875 -13.078125 C 10.59375 -13.285156 10.882812 -13.421875 11.0625 -13.484375 C 11.25 -13.554688 11.390625 -13.617188 11.484375 -13.671875 C 11.585938 -13.734375 11.828125 -13.753906 12.203125 -13.734375 C 12.628906 -13.691406 12.882812 -13.648438 12.96875 -13.609375 C 13.0625 -13.578125 13.128906 -13.46875 13.171875 -13.28125 L 13.28125 -12.9375 L 13.328125 -13.25 C 13.359375 -13.476562 13.375 -13.875 13.375 -14.4375 C 13.34375 -14.988281 13.3125 -15.265625 13.28125 -15.265625 C 13.164062 -15.222656 12.617188 -15.046875 11.640625 -14.734375 L 10.6875 -14.4375 L 10.328125 -14.59375 C 10.085938 -14.6875 9.910156 -14.734375 9.796875 -14.734375 C 9.691406 -14.734375 9.570312 -14.789062 9.4375 -14.90625 C 9.300781 -15.019531 9.109375 -15.132812 8.859375 -15.25 C 8.609375 -15.375 8.429688 -15.472656 8.328125 -15.546875 C 8.265625 -15.609375 8.238281 -15.640625 8.25 -15.640625 C 8.257812 -15.648438 8.300781 -15.65625 8.375 -15.65625 C 8.476562 -15.675781 8.53125 -15.703125 8.53125 -15.734375 C 8.507812 -15.785156 8.425781 -15.8125 8.28125 -15.8125 C 8.195312 -15.8125 8.09375 -15.828125 7.96875 -15.859375 C 7.851562 -15.890625 7.757812 -15.925781 7.6875 -15.96875 C 7.613281 -16.019531 7.582031 -16.054688 7.59375 -16.078125 C 7.695312 -16.222656 8.066406 -16.335938 8.703125 -16.421875 C 9.265625 -16.503906 10.140625 -16.8125 11.328125 -17.34375 C 12.515625 -17.84375 13.316406 -18.160156 13.734375 -18.296875 C 13.929688 -18.335938 14.054688 -18.394531 14.109375 -18.46875 Z M 10.96875 -12.9375 L 10.9375 -12.953125 C 10.882812 -12.953125 10.757812 -12.90625 10.5625 -12.8125 C 10.375 -12.726562 10.28125 -12.679688 10.28125 -12.671875 C 10.28125 -12.671875 10.332031 -12.6875 10.4375 -12.71875 C 10.539062 -12.75 10.648438 -12.785156 10.765625 -12.828125 C 10.878906 -12.878906 10.945312 -12.914062 10.96875 -12.9375 Z M 13.203125 -11.84375 C 13.222656 -11.9375 13.234375 -12.03125 13.234375 -12.125 C 13.234375 -12.226562 13.234375 -12.300781 13.234375 -12.34375 C 13.234375 -12.382812 13.234375 -12.40625 13.234375 -12.40625 C 13.210938 -12.40625 13.171875 -12.289062 13.109375 -12.0625 C 13.046875 -11.832031 12.941406 -11.632812 12.796875 -11.46875 C 12.660156 -11.3125 12.601562 -11.171875 12.625 -11.046875 C 12.65625 -10.921875 12.644531 -10.859375 12.59375 -10.859375 C 12.539062 -10.859375 12.457031 -10.796875 12.34375 -10.671875 C 12.238281 -10.554688 12.1875 -10.472656 12.1875 -10.421875 C 12.1875 -10.410156 12.257812 -10.410156 12.40625 -10.421875 C 12.5625 -10.441406 12.726562 -10.582031 12.90625 -10.84375 C 13.082031 -11.113281 13.179688 -11.445312 13.203125 -11.84375 Z M 11.078125 -11.515625 C 11.242188 -11.890625 11.316406 -12.09375 11.296875 -12.125 C 11.296875 -12.144531 11.265625 -12.140625 11.203125 -12.109375 C 11.140625 -12.085938 11.054688 -12.050781 10.953125 -12 C 10.847656 -11.957031 10.738281 -11.894531 10.625 -11.8125 L 9.96875 -11.453125 L 10.015625 -11.0625 C 10.046875 -10.800781 10.066406 -10.664062 10.078125 -10.65625 C 10.097656 -10.644531 10.226562 -10.695312 10.46875 -10.8125 C 10.613281 -10.894531 10.71875 -10.972656 10.78125 -11.046875 C 10.851562 -11.117188 10.953125 -11.273438 11.078125 -11.515625 Z M 11.421875 -11.203125 C 11.484375 -11.203125 11.515625 -11.222656 11.515625 -11.265625 C 11.515625 -11.316406 11.5 -11.34375 11.46875 -11.34375 C 11.4375 -11.34375 11.40625 -11.316406 11.375 -11.265625 C 11.34375 -11.222656 11.359375 -11.203125 11.421875 -11.203125 Z M 12.75 -10.296875 C 12.644531 -10.253906 12.59375 -10.253906 12.59375 -10.296875 C 12.59375 -10.347656 12.566406 -10.375 12.515625 -10.375 C 12.472656 -10.375 12.441406 -10.347656 12.421875 -10.296875 C 12.410156 -10.253906 12.410156 -10.207031 12.421875 -10.15625 C 12.441406 -10.101562 12.410156 -10.066406 12.328125 -10.046875 C 12.242188 -10.023438 12.171875 -9.984375 12.109375 -9.921875 C 12.078125 -9.878906 12.09375 -9.859375 12.15625 -9.859375 C 12.21875 -9.859375 12.351562 -9.878906 12.5625 -9.921875 C 12.925781 -9.992188 13.109375 -10.066406 13.109375 -10.140625 C 13.109375 -10.179688 13.066406 -10.226562 12.984375 -10.28125 C 12.929688 -10.34375 12.851562 -10.347656 12.75 -10.296875 Z M 9.671875 -5.1875 C 9.910156 -5.300781 10.03125 -5.378906 10.03125 -5.421875 C 10.03125 -5.460938 10.023438 -5.476562 10.015625 -5.46875 C 10.015625 -5.457031 9.828125 -5.394531 9.453125 -5.28125 C 9.140625 -5.164062 8.984375 -5.101562 8.984375 -5.09375 C 8.984375 -5.070312 9.019531 -5.046875 9.09375 -5.015625 C 9.21875 -4.929688 9.28125 -4.875 9.28125 -4.84375 C 9.300781 -4.75 9.40625 -4.757812 9.59375 -4.875 C 9.675781 -4.9375 9.6875 -4.96875 9.625 -4.96875 C 9.601562 -4.96875 9.5625 -4.953125 9.5 -4.921875 C 9.375 -4.898438 9.300781 -4.90625 9.28125 -4.9375 C 9.257812 -4.976562 9.300781 -5.019531 9.40625 -5.0625 C 9.445312 -5.09375 9.535156 -5.132812 9.671875 -5.1875 Z M 11.0625 -4.796875 C 11.0625 -4.847656 10.878906 -4.800781 10.515625 -4.65625 C 10.242188 -4.550781 10.007812 -4.492188 9.8125 -4.484375 L 9.5 -4.484375 L 9.640625 -3.890625 C 9.753906 -3.441406 9.828125 -3.207031 9.859375 -3.1875 C 9.898438 -3.175781 9.984375 -3.242188 10.109375 -3.390625 C 10.234375 -3.535156 10.421875 -3.789062 10.671875 -4.15625 C 10.929688 -4.53125 11.0625 -4.742188 11.0625 -4.796875 Z M 11.0625 -4.796875 "/></g></g></g><g fill="#000000" fill-opacity="1"><g transform="translate(39.148216, 21.307095)"><g><path d="M 19.171875 -16.078125 C 19.410156 -16.078125 19.585938 -16.117188 19.703125 -16.203125 C 19.816406 -16.296875 19.890625 -16.34375 19.921875 -16.34375 C 19.953125 -16.34375 20.113281 -16.222656 20.40625 -15.984375 C 20.707031 -15.753906 20.945312 -15.613281 21.125 -15.5625 C 21.300781 -15.519531 21.640625 -15.367188 22.140625 -15.109375 C 22.640625 -14.847656 22.941406 -14.675781 23.046875 -14.59375 C 23.128906 -14.507812 23.171875 -14.398438 23.171875 -14.265625 C 23.171875 -14.140625 23.191406 -14.070312 23.234375 -14.0625 C 23.335938 -13.976562 23.351562 -13.90625 23.28125 -13.84375 C 23.269531 -13.820312 23.25 -13.816406 23.21875 -13.828125 C 23.1875 -13.835938 23.148438 -13.820312 23.109375 -13.78125 C 23.078125 -13.75 23.054688 -13.703125 23.046875 -13.640625 C 22.984375 -13.460938 22.828125 -13.332031 22.578125 -13.25 C 22.335938 -13.164062 22.144531 -13.175781 22 -13.28125 C 21.894531 -13.320312 21.71875 -13.367188 21.46875 -13.421875 C 21.21875 -13.484375 21.039062 -13.554688 20.9375 -13.640625 C 20.84375 -13.722656 20.726562 -13.78125 20.59375 -13.8125 C 20.457031 -13.84375 20.335938 -13.953125 20.234375 -14.140625 C 20.128906 -14.335938 19.976562 -14.503906 19.78125 -14.640625 C 19.539062 -14.785156 19.328125 -14.945312 19.140625 -15.125 C 18.953125 -15.300781 18.859375 -15.425781 18.859375 -15.5 C 18.859375 -15.5625 18.804688 -15.632812 18.703125 -15.71875 C 18.546875 -15.90625 18.644531 -16.015625 19 -16.046875 C 19.050781 -16.066406 19.109375 -16.078125 19.171875 -16.078125 Z M 13.296875 -18.875 C 13.546875 -19.070312 13.875 -19.039062 14.28125 -18.78125 C 14.457031 -18.664062 14.5625 -18.609375 14.59375 -18.609375 C 14.625 -18.609375 14.769531 -18.503906 15.03125 -18.296875 C 15.289062 -18.097656 15.488281 -17.957031 15.625 -17.875 C 15.757812 -17.800781 15.867188 -17.707031 15.953125 -17.59375 C 16.085938 -17.394531 16.257812 -16.640625 16.46875 -15.328125 C 16.550781 -14.847656 16.625 -14.492188 16.6875 -14.265625 C 16.75 -14.046875 16.78125 -13.878906 16.78125 -13.765625 C 16.78125 -13.472656 17 -13.273438 17.4375 -13.171875 L 18.21875 -12.984375 L 18.90625 -12.8125 C 19.113281 -12.757812 19.234375 -12.71875 19.265625 -12.6875 C 19.367188 -12.59375 19.316406 -12.367188 19.109375 -12.015625 C 18.910156 -11.671875 18.628906 -11.3125 18.265625 -10.9375 C 18.003906 -10.675781 17.84375 -10.472656 17.78125 -10.328125 C 17.726562 -10.179688 17.726562 -9.953125 17.78125 -9.640625 C 17.84375 -9.234375 18.019531 -8.585938 18.3125 -7.703125 C 18.601562 -6.816406 18.800781 -6.320312 18.90625 -6.21875 C 18.90625 -6.21875 18.921875 -6.222656 18.953125 -6.234375 C 18.984375 -6.253906 19.007812 -6.285156 19.03125 -6.328125 C 19.0625 -6.378906 19.097656 -6.441406 19.140625 -6.515625 C 19.191406 -6.585938 19.242188 -6.664062 19.296875 -6.75 C 19.359375 -6.832031 19.414062 -6.921875 19.46875 -7.015625 C 19.800781 -7.597656 19.96875 -7.960938 19.96875 -8.109375 C 19.96875 -8.210938 19.976562 -8.273438 20 -8.296875 C 20.019531 -8.316406 20.050781 -8.320312 20.09375 -8.3125 C 20.15625 -8.28125 20.226562 -8.296875 20.3125 -8.359375 C 20.488281 -8.535156 20.648438 -8.523438 20.796875 -8.328125 C 20.847656 -8.242188 20.925781 -8.203125 21.03125 -8.203125 C 21.132812 -8.203125 21.285156 -8.097656 21.484375 -7.890625 C 21.691406 -7.679688 21.820312 -7.492188 21.875 -7.328125 C 21.988281 -6.992188 21.898438 -6.6875 21.609375 -6.40625 C 21.460938 -6.257812 21.289062 -6.039062 21.09375 -5.75 C 20.894531 -5.46875 20.632812 -5.117188 20.3125 -4.703125 C 20.070312 -4.378906 19.9375 -4.179688 19.90625 -4.109375 C 19.882812 -4.035156 19.890625 -3.945312 19.921875 -3.84375 C 19.992188 -3.695312 20.160156 -3.304688 20.421875 -2.671875 C 20.691406 -2.046875 20.90625 -1.566406 21.0625 -1.234375 C 21.226562 -0.910156 21.3125 -0.695312 21.3125 -0.59375 C 21.3125 -0.488281 21.332031 -0.4375 21.375 -0.4375 C 21.414062 -0.4375 21.46875 -0.347656 21.53125 -0.171875 C 21.59375 0.00390625 21.675781 0.21875 21.78125 0.46875 C 22.300781 1.601562 22.507812 2.191406 22.40625 2.234375 C 22.363281 2.285156 22.34375 2.378906 22.34375 2.515625 C 22.34375 2.660156 22.363281 2.789062 22.40625 2.90625 C 22.457031 2.96875 22.488281 3.066406 22.5 3.203125 C 22.519531 3.335938 22.523438 3.445312 22.515625 3.53125 C 22.515625 3.625 22.488281 3.671875 22.4375 3.671875 C 22.414062 3.671875 22.398438 3.679688 22.390625 3.703125 C 22.390625 3.722656 22.390625 3.75 22.390625 3.78125 C 22.398438 3.820312 22.410156 3.878906 22.421875 3.953125 C 22.429688 4.023438 22.460938 4.117188 22.515625 4.234375 L 22.5625 4.40625 L 22.34375 4.234375 C 22.207031 4.109375 22.070312 4.054688 21.9375 4.078125 C 21.8125 4.097656 21.75 4.085938 21.75 4.046875 C 21.75 4.015625 21.640625 3.941406 21.421875 3.828125 C 21.203125 3.710938 21.09375 3.632812 21.09375 3.59375 C 21.09375 3.550781 21.050781 3.519531 20.96875 3.5 C 20.894531 3.488281 20.789062 3.359375 20.65625 3.109375 C 20.53125 2.859375 20.421875 2.671875 20.328125 2.546875 C 20.234375 2.421875 20.171875 2.300781 20.140625 2.1875 C 20.109375 2.0625 19.921875 1.625 19.578125 0.875 C 19.421875 0.5 19.253906 0.078125 19.078125 -0.390625 C 18.929688 -0.878906 18.8125 -1.25 18.71875 -1.5 C 18.632812 -1.75 18.554688 -1.953125 18.484375 -2.109375 C 18.421875 -2.265625 18.367188 -2.359375 18.328125 -2.390625 C 18.285156 -2.429688 18.257812 -2.453125 18.25 -2.453125 C 18.164062 -2.410156 18.101562 -2.390625 18.0625 -2.390625 C 18.019531 -2.390625 17.863281 -2.28125 17.59375 -2.0625 C 17.332031 -1.851562 17.164062 -1.75 17.09375 -1.75 C 16.988281 -1.738281 16.691406 -1.53125 16.203125 -1.125 C 16.054688 -1.007812 15.910156 -0.9375 15.765625 -0.90625 C 15.617188 -0.875 15.507812 -0.847656 15.4375 -0.828125 C 15.363281 -0.796875 15.289062 -0.816406 15.21875 -0.890625 C 15.15625 -0.960938 15.132812 -1.054688 15.15625 -1.171875 C 15.1875 -1.296875 15.148438 -1.367188 15.046875 -1.390625 C 14.867188 -1.453125 14.890625 -1.550781 15.109375 -1.6875 C 15.117188 -1.695312 15.132812 -1.710938 15.15625 -1.734375 C 15.53125 -1.972656 16.039062 -2.414062 16.6875 -3.0625 C 17.332031 -3.71875 17.65625 -4.109375 17.65625 -4.234375 C 17.65625 -4.285156 17.546875 -4.566406 17.328125 -5.078125 C 17.109375 -5.585938 16.976562 -5.859375 16.9375 -5.890625 C 16.914062 -5.941406 16.785156 -5.820312 16.546875 -5.53125 L 15.8125 -4.703125 L 15.03125 -3.828125 C 14.675781 -3.398438 14.203125 -2.894531 13.609375 -2.3125 C 13.023438 -1.726562 12.6875 -1.421875 12.59375 -1.390625 C 12.425781 -1.304688 12.226562 -1.175781 12 -1 C 11.78125 -0.832031 11.570312 -0.734375 11.375 -0.703125 C 11.226562 -0.671875 11.140625 -0.675781 11.109375 -0.71875 C 11.078125 -0.769531 11.0625 -0.953125 11.0625 -1.265625 C 11.0625 -1.734375 11.140625 -2.054688 11.296875 -2.234375 C 11.328125 -2.273438 11.316406 -2.332031 11.265625 -2.40625 C 11.222656 -2.476562 11.222656 -2.546875 11.265625 -2.609375 C 11.304688 -2.671875 11.316406 -2.734375 11.296875 -2.796875 C 11.285156 -2.867188 11.285156 -2.957031 11.296875 -3.0625 C 11.316406 -3.164062 11.335938 -3.21875 11.359375 -3.21875 C 11.390625 -3.21875 11.453125 -3.1875 11.546875 -3.125 L 11.734375 -3.015625 L 12.28125 -3.5625 C 12.488281 -3.800781 12.765625 -4.140625 13.109375 -4.578125 C 13.460938 -5.015625 13.765625 -5.40625 14.015625 -5.75 C 14.265625 -6.101562 14.367188 -6.28125 14.328125 -6.28125 C 14.304688 -6.28125 14.070312 -6.171875 13.625 -5.953125 C 13.175781 -5.734375 12.875 -5.582031 12.71875 -5.5 C 12.082031 -5.113281 11.738281 -4.878906 11.6875 -4.796875 C 11.675781 -4.785156 11.625 -4.757812 11.53125 -4.71875 C 11.445312 -4.6875 11.40625 -4.710938 11.40625 -4.796875 C 11.40625 -4.890625 11.367188 -4.957031 11.296875 -5 C 11.234375 -5.039062 11.1875 -5.207031 11.15625 -5.5 C 11.132812 -5.75 11.101562 -5.875 11.0625 -5.875 C 11.03125 -5.875 10.960938 -5.734375 10.859375 -5.453125 C 10.765625 -5.066406 10.566406 -4.5625 10.265625 -3.9375 C 9.960938 -3.3125 9.75 -2.914062 9.625 -2.75 C 9.519531 -2.65625 9.421875 -2.535156 9.328125 -2.390625 C 9.179688 -2.191406 9.101562 -2.175781 9.09375 -2.34375 C 9.09375 -2.414062 9.035156 -2.546875 8.921875 -2.734375 C 8.816406 -2.921875 8.707031 -3.070312 8.59375 -3.1875 C 8.53125 -3.238281 8.503906 -3.347656 8.515625 -3.515625 C 8.535156 -3.691406 8.515625 -3.847656 8.453125 -3.984375 C 8.390625 -4.117188 8.378906 -4.238281 8.421875 -4.34375 C 8.492188 -4.40625 8.582031 -4.597656 8.6875 -4.921875 C 8.800781 -5.242188 8.859375 -5.414062 8.859375 -5.4375 C 8.816406 -5.46875 8.707031 -5.378906 8.53125 -5.171875 C 8.351562 -4.972656 8.164062 -4.726562 7.96875 -4.4375 C 7.769531 -4.144531 7.640625 -3.914062 7.578125 -3.75 C 7.492188 -3.570312 7.347656 -3.34375 7.140625 -3.0625 C 6.941406 -2.789062 6.8125 -2.582031 6.75 -2.4375 C 6.695312 -2.300781 6.503906 -2.050781 6.171875 -1.6875 C 5.835938 -1.320312 5.460938 -0.960938 5.046875 -0.609375 L 4.484375 -0.125 L 4.09375 -0.1875 C 3.882812 -0.207031 3.722656 -0.253906 3.609375 -0.328125 C 3.492188 -0.398438 3.28125 -0.597656 2.96875 -0.921875 C 2.820312 -1.066406 2.71875 -1.140625 2.65625 -1.140625 C 2.570312 -1.140625 2.40625 -1.21875 2.15625 -1.375 C 1.914062 -1.539062 1.796875 -1.664062 1.796875 -1.75 C 1.796875 -1.800781 1.765625 -1.828125 1.703125 -1.828125 C 1.671875 -1.828125 1.609375 -1.914062 1.515625 -2.09375 C 1.429688 -2.269531 1.390625 -2.398438 1.390625 -2.484375 C 1.390625 -2.535156 1.421875 -2.546875 1.484375 -2.515625 C 1.546875 -2.492188 1.601562 -2.519531 1.65625 -2.59375 C 1.71875 -2.664062 1.894531 -2.6875 2.1875 -2.65625 C 2.40625 -2.632812 2.53125 -2.628906 2.5625 -2.640625 C 2.601562 -2.648438 2.632812 -2.6875 2.65625 -2.75 C 2.707031 -2.863281 3.039062 -3.238281 3.65625 -3.875 L 4.609375 -4.84375 L 4.796875 -5.53125 C 4.910156 -5.988281 4.984375 -6.304688 5.015625 -6.484375 L 5.0625 -6.765625 L 4.453125 -6.765625 C 4.046875 -6.785156 3.742188 -6.828125 3.546875 -6.890625 C 3.359375 -6.953125 3.191406 -6.984375 3.046875 -6.984375 C 2.898438 -6.984375 2.703125 -7.066406 2.453125 -7.234375 C 2.210938 -7.398438 1.960938 -7.519531 1.703125 -7.59375 C 1.441406 -7.675781 1.300781 -7.757812 1.28125 -7.84375 C 1.257812 -7.9375 1.195312 -7.984375 1.09375 -7.984375 C 0.96875 -8.035156 1.050781 -8.148438 1.34375 -8.328125 C 1.457031 -8.410156 1.570312 -8.46875 1.6875 -8.5 C 2.125 -8.613281 2.441406 -8.71875 2.640625 -8.8125 C 2.847656 -8.914062 3.335938 -9.191406 4.109375 -9.640625 C 4.359375 -9.804688 4.546875 -9.921875 4.671875 -9.984375 C 4.804688 -10.046875 4.921875 -10.117188 5.015625 -10.203125 C 5.117188 -10.285156 5.222656 -10.34375 5.328125 -10.375 C 5.410156 -10.425781 5.460938 -10.5 5.484375 -10.59375 C 5.515625 -10.695312 5.554688 -11 5.609375 -11.5 C 5.710938 -12.894531 5.703125 -13.953125 5.578125 -14.671875 C 5.546875 -14.921875 5.507812 -15.09375 5.46875 -15.1875 C 5.425781 -15.28125 5.34375 -15.390625 5.21875 -15.515625 C 5 -15.691406 4.890625 -15.796875 4.890625 -15.828125 C 4.890625 -15.859375 4.84375 -15.910156 4.75 -15.984375 C 4.65625 -16.066406 4.640625 -16.160156 4.703125 -16.265625 C 4.765625 -16.378906 4.898438 -16.425781 5.109375 -16.40625 C 5.328125 -16.382812 5.613281 -16.320312 5.96875 -16.21875 C 6.320312 -16.125 6.597656 -16.050781 6.796875 -16 C 6.992188 -15.988281 7.265625 -15.890625 7.609375 -15.703125 C 7.960938 -15.523438 8.195312 -15.375 8.3125 -15.25 C 8.375 -15.132812 8.40625 -15.035156 8.40625 -14.953125 C 8.414062 -14.867188 8.414062 -14.648438 8.40625 -14.296875 C 8.375 -13.796875 8.34375 -13.519531 8.3125 -13.46875 C 8.257812 -13.40625 8.1875 -13.179688 8.09375 -12.796875 C 8.007812 -12.421875 7.96875 -12.175781 7.96875 -12.0625 C 7.96875 -11.945312 7.914062 -11.765625 7.8125 -11.515625 C 7.769531 -11.304688 7.765625 -11.171875 7.796875 -11.109375 C 7.828125 -11.046875 7.957031 -11.019531 8.1875 -11.03125 C 8.414062 -11.03125 8.53125 -10.984375 8.53125 -10.890625 C 8.53125 -10.796875 8.578125 -10.753906 8.671875 -10.765625 C 8.765625 -10.816406 8.878906 -10.804688 9.015625 -10.734375 C 9.160156 -10.671875 9.234375 -10.597656 9.234375 -10.515625 C 9.234375 -10.421875 9.195312 -10.363281 9.125 -10.34375 C 9.0625 -10.332031 9.03125 -10.285156 9.03125 -10.203125 C 9.03125 -10.140625 9.078125 -10.054688 9.171875 -9.953125 C 9.265625 -9.859375 9.347656 -9.8125 9.421875 -9.8125 C 9.640625 -9.8125 9.625 -9.695312 9.375 -9.46875 C 9.28125 -9.394531 9.128906 -9.273438 8.921875 -9.109375 C 8.691406 -8.929688 8.378906 -8.75 7.984375 -8.5625 C 7.597656 -8.375 7.390625 -8.238281 7.359375 -8.15625 C 7.242188 -7.738281 7.144531 -7.179688 7.0625 -6.484375 C 7.050781 -6.234375 7.023438 -6.0625 6.984375 -5.96875 C 6.953125 -5.875 6.96875 -5.820312 7.03125 -5.8125 C 7.101562 -5.800781 7.171875 -5.828125 7.234375 -5.890625 C 7.285156 -5.972656 7.332031 -6.015625 7.375 -6.015625 C 7.425781 -6.015625 7.613281 -6.128906 7.9375 -6.359375 L 8.75 -6.96875 C 9.15625 -7.238281 9.394531 -7.429688 9.46875 -7.546875 C 9.550781 -7.660156 9.625 -7.898438 9.6875 -8.265625 C 9.882812 -9.347656 9.863281 -10.222656 9.625 -10.890625 C 9.539062 -11.117188 9.550781 -11.257812 9.65625 -11.3125 C 9.757812 -11.375 9.898438 -11.320312 10.078125 -11.15625 C 10.191406 -11.070312 10.300781 -11.03125 10.40625 -11.03125 C 10.519531 -11.03125 10.632812 -10.96875 10.75 -10.84375 C 10.894531 -10.644531 11.0625 -10.570312 11.25 -10.625 C 11.445312 -10.6875 11.976562 -10.953125 12.84375 -11.421875 C 13.894531 -12.023438 14.5 -12.347656 14.65625 -12.390625 C 14.8125 -12.441406 14.890625 -12.492188 14.890625 -12.546875 C 14.890625 -12.597656 14.832031 -12.8125 14.71875 -13.1875 C 14.601562 -13.570312 14.457031 -14.140625 14.28125 -14.890625 C 13.945312 -16.328125 13.671875 -17.273438 13.453125 -17.734375 C 13.316406 -17.992188 13.265625 -18.160156 13.296875 -18.234375 C 13.328125 -18.304688 13.296875 -18.40625 13.203125 -18.53125 C 13.140625 -18.601562 13.113281 -18.65625 13.125 -18.6875 C 13.144531 -18.726562 13.203125 -18.789062 13.296875 -18.875 Z M 13.109375 -8.609375 C 13.921875 -9.410156 14.328125 -9.828125 14.328125 -9.859375 C 14.328125 -9.898438 14.316406 -9.921875 14.296875 -9.921875 C 14.285156 -9.921875 13.941406 -9.71875 13.265625 -9.3125 C 12.585938 -8.914062 12.21875 -8.703125 12.15625 -8.671875 C 12.070312 -8.585938 11.96875 -8.546875 11.84375 -8.546875 C 11.757812 -8.546875 11.703125 -8.535156 11.671875 -8.515625 C 11.640625 -8.492188 11.613281 -8.425781 11.59375 -8.3125 C 11.5625 -8.125 11.53125 -7.90625 11.5 -7.65625 C 11.4375 -7.320312 11.425781 -7.15625 11.46875 -7.15625 C 11.46875 -7.15625 11.484375 -7.164062 11.515625 -7.1875 C 11.585938 -7.21875 11.613281 -7.265625 11.59375 -7.328125 C 11.582031 -7.390625 11.628906 -7.421875 11.734375 -7.421875 C 11.835938 -7.421875 12.296875 -7.816406 13.109375 -8.609375 Z M 11.203125 -6.484375 C 11.203125 -6.429688 11.226562 -6.429688 11.28125 -6.484375 C 11.34375 -6.546875 11.359375 -6.585938 11.328125 -6.609375 C 11.304688 -6.640625 11.28125 -6.640625 11.25 -6.609375 C 11.21875 -6.585938 11.203125 -6.546875 11.203125 -6.484375 Z M 2.84375 -2.65625 C 2.894531 -2.6875 2.921875 -2.707031 2.921875 -2.71875 C 2.921875 -2.738281 2.894531 -2.75 2.84375 -2.75 C 2.800781 -2.75 2.78125 -2.726562 2.78125 -2.6875 C 2.78125 -2.644531 2.800781 -2.632812 2.84375 -2.65625 Z M 2.84375 -2.65625 "/></g></g></g><g fill="#000000" fill-opacity="1"><g transform="translate(63.496788, 21.307095)"><g><path d="M 10.34375 -19.671875 C 10.332031 -19.722656 10.351562 -19.773438 10.40625 -19.828125 C 10.46875 -19.890625 10.503906 -19.921875 10.515625 -19.921875 C 10.566406 -19.921875 10.789062 -19.816406 11.1875 -19.609375 C 11.59375 -19.410156 11.800781 -19.296875 11.8125 -19.265625 C 11.832031 -19.210938 11.945312 -19.0625 12.15625 -18.8125 C 12.363281 -18.5625 12.453125 -18.4375 12.421875 -18.4375 C 12.390625 -18.4375 12.425781 -18.394531 12.53125 -18.3125 C 12.632812 -18.238281 12.6875 -18.117188 12.6875 -17.953125 C 12.65625 -16.203125 12.722656 -15.304688 12.890625 -15.265625 C 13.554688 -15.191406 13.945312 -15 14.0625 -14.6875 C 14.125 -14.5625 14.226562 -14.414062 14.375 -14.25 C 14.519531 -14.082031 14.625 -14 14.6875 -14 C 14.738281 -14 14.789062 -13.9375 14.84375 -13.8125 C 14.90625 -13.695312 14.921875 -13.613281 14.890625 -13.5625 C 14.867188 -13.519531 14.875 -13.460938 14.90625 -13.390625 C 14.957031 -13.328125 14.976562 -13.257812 14.96875 -13.1875 C 14.957031 -13.113281 14.929688 -13.078125 14.890625 -13.078125 C 14.804688 -13.097656 14.5625 -13.046875 14.15625 -12.921875 C 13.757812 -12.796875 13.429688 -12.703125 13.171875 -12.640625 C 12.753906 -12.554688 12.535156 -12.429688 12.515625 -12.265625 C 12.503906 -12.097656 12.507812 -11.988281 12.53125 -11.9375 C 12.550781 -11.882812 12.617188 -11.859375 12.734375 -11.859375 C 12.953125 -11.878906 13.179688 -11.859375 13.421875 -11.796875 C 13.660156 -11.742188 13.800781 -11.6875 13.84375 -11.625 C 13.90625 -11.539062 13.957031 -11.5 14 -11.5 C 14.050781 -11.5 14.0625 -11.46875 14.03125 -11.40625 C 14.007812 -11.332031 14.082031 -11.207031 14.25 -11.03125 C 14.425781 -10.851562 14.554688 -10.75 14.640625 -10.71875 C 14.722656 -10.6875 14.78125 -10.601562 14.8125 -10.46875 C 14.84375 -10.34375 14.863281 -10.242188 14.875 -10.171875 C 14.894531 -10.109375 14.832031 -10.0625 14.6875 -10.03125 C 13.695312 -9.90625 13.175781 -9.8125 13.125 -9.75 C 13.113281 -9.695312 13.210938 -9.582031 13.421875 -9.40625 C 13.566406 -9.238281 13.6875 -9.144531 13.78125 -9.125 C 13.882812 -9.113281 14.128906 -9.148438 14.515625 -9.234375 C 14.710938 -9.285156 15.015625 -9.332031 15.421875 -9.375 C 15.828125 -9.425781 16.144531 -9.476562 16.375 -9.53125 C 16.550781 -9.539062 16.828125 -9.503906 17.203125 -9.421875 C 17.578125 -9.347656 17.800781 -9.273438 17.875 -9.203125 C 17.90625 -9.171875 17.988281 -9.109375 18.125 -9.015625 C 18.269531 -8.929688 18.332031 -8.859375 18.3125 -8.796875 C 18.300781 -8.734375 18.351562 -8.628906 18.46875 -8.484375 C 18.582031 -8.335938 18.671875 -8.253906 18.734375 -8.234375 C 18.847656 -8.179688 18.90625 -8.066406 18.90625 -7.890625 C 18.90625 -7.710938 18.929688 -7.597656 18.984375 -7.546875 C 19.046875 -7.503906 19.054688 -7.460938 19.015625 -7.421875 C 18.984375 -7.378906 18.628906 -7.351562 17.953125 -7.34375 C 17.285156 -7.332031 16.75 -7.296875 16.34375 -7.234375 C 15.9375 -7.171875 15.71875 -7.140625 15.6875 -7.140625 C 15.5625 -7.140625 15.734375 -6.835938 16.203125 -6.234375 C 16.554688 -5.765625 16.800781 -5.457031 16.9375 -5.3125 C 17.382812 -4.820312 17.632812 -4.53125 17.6875 -4.4375 C 17.695312 -4.375 17.976562 -4.085938 18.53125 -3.578125 C 19.269531 -2.878906 20.3125 -2.125 21.65625 -1.3125 C 21.925781 -1.132812 22.0625 -1.03125 22.0625 -1 C 22.03125 -0.914062 22.078125 -0.769531 22.203125 -0.5625 C 22.328125 -0.363281 22.453125 -0.207031 22.578125 -0.09375 C 22.859375 0.132812 22.910156 0.25 22.734375 0.25 C 22.679688 0.25 22.625 0.238281 22.5625 0.21875 L 22.234375 0.140625 L 22.53125 0.296875 C 22.695312 0.390625 22.835938 0.546875 22.953125 0.765625 C 23.078125 0.984375 23.140625 1.101562 23.140625 1.125 C 23.140625 1.15625 23.03125 1.144531 22.8125 1.09375 C 22.59375 1.039062 22.34375 0.976562 22.0625 0.90625 C 21.789062 0.832031 21.554688 0.765625 21.359375 0.703125 C 20.890625 0.546875 20.5625 0.476562 20.375 0.5 C 20.1875 0.519531 20.09375 0.488281 20.09375 0.40625 C 20.09375 0.332031 20.046875 0.316406 19.953125 0.359375 C 19.867188 0.398438 19.75 0.410156 19.59375 0.390625 C 19.4375 0.367188 19.351562 0.34375 19.34375 0.3125 C 19.3125 0.269531 19.28125 0.25 19.25 0.25 C 19.132812 0.25 18.753906 -0.0703125 18.109375 -0.71875 C 17.472656 -1.375 17.015625 -1.890625 16.734375 -2.265625 C 16.640625 -2.390625 16.554688 -2.492188 16.484375 -2.578125 C 16.421875 -2.660156 16.300781 -2.804688 16.125 -3.015625 C 15.914062 -3.304688 15.78125 -3.4375 15.71875 -3.40625 C 15.664062 -3.375 15.671875 -1.804688 15.734375 1.296875 C 15.753906 2.265625 15.742188 2.910156 15.703125 3.234375 C 15.660156 3.566406 15.625 3.847656 15.59375 4.078125 C 15.570312 4.316406 15.53125 4.457031 15.46875 4.5 C 15.40625 4.550781 15.347656 4.695312 15.296875 4.9375 C 15.210938 5.195312 15.15625 5.328125 15.125 5.328125 C 15.113281 5.316406 15.085938 5.28125 15.046875 5.21875 C 15.015625 5.144531 14.921875 5.078125 14.765625 5.015625 C 14.617188 4.953125 14.488281 4.875 14.375 4.78125 C 14.03125 4.488281 13.835938 4.3125 13.796875 4.25 C 13.753906 4.195312 13.734375 4.078125 13.734375 3.890625 C 13.703125 3.585938 13.585938 3.410156 13.390625 3.359375 C 13.203125 3.304688 12.832031 3.363281 12.28125 3.53125 C 11.613281 3.738281 11.195312 3.957031 11.03125 4.1875 C 10.914062 4.320312 10.796875 4.363281 10.671875 4.3125 C 10.554688 4.257812 10.414062 4.148438 10.25 3.984375 C 10.09375 3.816406 9.910156 3.6875 9.703125 3.59375 C 9.503906 3.5 9.394531 3.394531 9.375 3.28125 C 9.3125 2.988281 9.179688 2.84375 8.984375 2.84375 C 8.890625 2.84375 8.828125 2.722656 8.796875 2.484375 C 8.742188 2.191406 8.722656 1.773438 8.734375 1.234375 C 8.742188 0.703125 8.769531 0.289062 8.8125 0 C 8.894531 -0.34375 8.945312 -0.632812 8.96875 -0.875 L 9.015625 -1.625 C 9.015625 -2 8.984375 -2.179688 8.921875 -2.171875 C 8.898438 -2.148438 8.835938 -2.0625 8.734375 -1.90625 C 8.628906 -1.757812 8.578125 -1.660156 8.578125 -1.609375 C 8.578125 -1.554688 8.546875 -1.5 8.484375 -1.4375 C 8.429688 -1.382812 8.316406 -1.226562 8.140625 -0.96875 C 7.773438 -0.445312 7.171875 0.117188 6.328125 0.734375 C 5.617188 1.285156 5.191406 1.550781 5.046875 1.53125 C 4.960938 1.5 4.875 1.503906 4.78125 1.546875 C 4.695312 1.597656 4.566406 1.65625 4.390625 1.71875 C 4.222656 1.789062 4.070312 1.890625 3.9375 2.015625 C 3.800781 2.148438 3.691406 2.21875 3.609375 2.21875 C 3.535156 2.21875 3.460938 2.257812 3.390625 2.34375 C 3.222656 2.4375 3.140625 2.421875 3.140625 2.296875 C 3.191406 2.097656 3.003906 2.101562 2.578125 2.3125 C 2.390625 2.425781 2.238281 2.46875 2.125 2.4375 C 2.019531 2.40625 1.984375 2.316406 2.015625 2.171875 C 2.015625 2.117188 2.007812 2.070312 2 2.03125 C 2 1.988281 1.976562 1.960938 1.9375 1.953125 C 1.894531 1.953125 1.84375 1.957031 1.78125 1.96875 C 1.726562 1.988281 1.65625 2.03125 1.5625 2.09375 C 1.382812 2.175781 1.28125 2.207031 1.25 2.1875 C 1.164062 2.125 1.265625 1.9375 1.546875 1.625 C 1.828125 1.320312 2.226562 0.96875 2.75 0.5625 C 4.257812 -0.570312 5.144531 -1.34375 5.40625 -1.75 C 5.550781 -1.96875 5.75 -2.203125 6 -2.453125 C 6.25 -2.703125 6.375 -2.847656 6.375 -2.890625 C 6.375 -2.929688 6.425781 -3.015625 6.53125 -3.140625 C 6.644531 -3.304688 6.878906 -3.664062 7.234375 -4.21875 C 7.585938 -4.769531 7.765625 -5.050781 7.765625 -5.0625 C 7.722656 -5.09375 7.59375 -5.0625 7.375 -4.96875 C 7.164062 -4.875 6.960938 -4.773438 6.765625 -4.671875 C 6.503906 -4.492188 6.328125 -4.4375 6.234375 -4.5 C 6.148438 -4.570312 6.09375 -4.644531 6.0625 -4.71875 C 6.03125 -4.789062 5.921875 -4.882812 5.734375 -5 C 5.546875 -5.125 5.414062 -5.242188 5.34375 -5.359375 C 5.269531 -5.472656 5.175781 -5.5625 5.0625 -5.625 C 4.945312 -5.6875 4.898438 -5.738281 4.921875 -5.78125 C 4.953125 -5.820312 4.910156 -5.875 4.796875 -5.9375 C 4.597656 -6.082031 4.566406 -6.175781 4.703125 -6.21875 C 4.828125 -6.21875 4.859375 -6.238281 4.796875 -6.28125 C 4.785156 -6.332031 4.738281 -6.363281 4.65625 -6.375 C 4.550781 -6.425781 4.492188 -6.519531 4.484375 -6.65625 C 4.460938 -6.800781 4.476562 -6.890625 4.53125 -6.921875 C 4.59375 -6.960938 4.710938 -6.960938 4.890625 -6.921875 C 5.085938 -6.859375 5.410156 -6.878906 5.859375 -6.984375 C 6.316406 -7.085938 6.585938 -7.15625 6.671875 -7.1875 C 6.734375 -7.21875 6.96875 -7.296875 7.375 -7.421875 C 7.78125 -7.554688 8.007812 -7.640625 8.0625 -7.671875 C 8.144531 -7.671875 8.222656 -7.679688 8.296875 -7.703125 C 8.367188 -7.734375 8.59375 -7.789062 8.96875 -7.875 C 9.257812 -7.9375 9.453125 -7.988281 9.546875 -8.03125 C 9.640625 -8.082031 9.695312 -8.191406 9.71875 -8.359375 C 9.75 -8.453125 9.75 -8.519531 9.71875 -8.5625 C 9.695312 -8.601562 9.625 -8.648438 9.5 -8.703125 C 9.300781 -8.773438 9.054688 -8.910156 8.765625 -9.109375 C 8.472656 -9.304688 8.296875 -9.445312 8.234375 -9.53125 C 8.203125 -9.59375 8.1875 -9.628906 8.1875 -9.640625 C 8.1875 -9.660156 8.210938 -9.671875 8.265625 -9.671875 C 8.359375 -9.671875 8.316406 -9.753906 8.140625 -9.921875 C 7.859375 -10.171875 7.785156 -10.320312 7.921875 -10.375 C 7.953125 -10.375 8.066406 -10.378906 8.265625 -10.390625 C 8.472656 -10.410156 8.765625 -10.507812 9.140625 -10.6875 C 9.734375 -10.976562 10.144531 -11.164062 10.375 -11.25 C 10.632812 -11.3125 10.765625 -11.457031 10.765625 -11.6875 C 10.765625 -11.789062 10.535156 -11.726562 10.078125 -11.5 C 9.804688 -11.363281 9.601562 -11.320312 9.46875 -11.375 C 9.34375 -11.425781 8.992188 -11.671875 8.421875 -12.109375 C 8.265625 -12.253906 8.132812 -12.359375 8.03125 -12.421875 C 7.925781 -12.484375 7.835938 -12.582031 7.765625 -12.71875 C 7.703125 -12.832031 7.671875 -12.894531 7.671875 -12.90625 C 7.671875 -12.925781 7.703125 -12.9375 7.765625 -12.9375 C 7.847656 -12.9375 7.816406 -13 7.671875 -13.125 C 7.296875 -13.46875 7.207031 -13.671875 7.40625 -13.734375 C 7.457031 -13.753906 7.546875 -13.75 7.671875 -13.71875 C 7.835938 -13.664062 8.023438 -13.671875 8.234375 -13.734375 L 8.921875 -13.9375 C 9.160156 -14.019531 9.34375 -14.085938 9.46875 -14.140625 C 9.601562 -14.191406 9.890625 -14.289062 10.328125 -14.4375 L 11.015625 -14.671875 L 11.03125 -15.78125 C 11.03125 -16.53125 11 -17.144531 10.9375 -17.625 C 10.875 -18.101562 10.828125 -18.445312 10.796875 -18.65625 C 10.773438 -18.863281 10.679688 -19.082031 10.515625 -19.3125 C 10.421875 -19.507812 10.363281 -19.628906 10.34375 -19.671875 Z M 12.1875 -8.984375 C 12.113281 -9.410156 12.035156 -9.425781 11.953125 -9.03125 C 11.941406 -9 11.9375 -8.960938 11.9375 -8.921875 L 11.890625 -8.625 L 12.0625 -8.703125 C 12.1875 -8.734375 12.226562 -8.828125 12.1875 -8.984375 Z M 13.671875 -6.484375 C 13.566406 -6.578125 13.46875 -6.617188 13.375 -6.609375 C 13.289062 -6.597656 13.019531 -6.519531 12.5625 -6.375 C 12.050781 -6.195312 11.726562 -6.109375 11.59375 -6.109375 C 11.207031 -6.109375 10.945312 -5.988281 10.8125 -5.75 C 10.726562 -5.582031 10.6875 -5.460938 10.6875 -5.390625 C 10.6875 -5.316406 10.644531 -5.203125 10.5625 -5.046875 C 10.488281 -4.898438 10.4375 -4.816406 10.40625 -4.796875 C 10.351562 -4.785156 10.328125 -4.753906 10.328125 -4.703125 C 10.328125 -4.648438 10.242188 -4.492188 10.078125 -4.234375 C 9.835938 -3.847656 9.773438 -3.65625 9.890625 -3.65625 C 9.921875 -3.65625 10.15625 -3.757812 10.59375 -3.96875 C 11.664062 -4.507812 12.414062 -4.796875 12.84375 -4.828125 C 12.90625 -4.828125 12.984375 -4.867188 13.078125 -4.953125 C 13.179688 -5.046875 13.347656 -5.070312 13.578125 -5.03125 C 13.816406 -4.988281 13.941406 -4.960938 13.953125 -4.953125 C 13.972656 -4.941406 14.054688 -4.914062 14.203125 -4.875 C 14.359375 -4.84375 14.5 -4.769531 14.625 -4.65625 C 14.75 -4.550781 14.84375 -4.507812 14.90625 -4.53125 C 14.96875 -4.5625 14.96875 -4.644531 14.90625 -4.78125 C 14.5625 -5.28125 14.253906 -5.691406 13.984375 -6.015625 C 13.867188 -6.160156 13.8125 -6.253906 13.8125 -6.296875 C 13.8125 -6.335938 13.765625 -6.398438 13.671875 -6.484375 Z M 13.28125 -3.4375 C 13.25 -3.550781 12.976562 -3.492188 12.46875 -3.265625 C 11.832031 -2.972656 11.304688 -2.828125 10.890625 -2.828125 C 10.753906 -2.828125 10.675781 -2.8125 10.65625 -2.78125 C 10.644531 -2.757812 10.664062 -2.71875 10.71875 -2.65625 C 10.832031 -2.457031 10.914062 -2.148438 10.96875 -1.734375 C 10.976562 -1.472656 11 -1.34375 11.03125 -1.34375 C 11.0625 -1.34375 11.289062 -1.40625 11.71875 -1.53125 C 12.125 -1.675781 12.421875 -1.75 12.609375 -1.75 C 12.796875 -1.75 12.929688 -1.675781 13.015625 -1.53125 C 13.085938 -1.34375 13.234375 -1.25 13.453125 -1.25 C 13.460938 -1.289062 13.46875 -1.410156 13.46875 -1.609375 C 13.46875 -1.804688 13.457031 -2.03125 13.4375 -2.28125 C 13.425781 -2.539062 13.410156 -2.691406 13.390625 -2.734375 C 13.378906 -2.804688 13.359375 -2.921875 13.328125 -3.078125 C 13.304688 -3.234375 13.289062 -3.351562 13.28125 -3.4375 Z M 13.46875 0.484375 C 13.488281 0.335938 13.5 0.210938 13.5 0.109375 C 13.5 0.00390625 13.492188 -0.078125 13.484375 -0.140625 C 13.472656 -0.210938 13.460938 -0.257812 13.453125 -0.28125 C 13.453125 -0.300781 13.441406 -0.3125 13.421875 -0.3125 C 13.179688 -0.28125 12.773438 -0.160156 12.203125 0.046875 C 11.828125 0.191406 11.519531 0.273438 11.28125 0.296875 L 10.9375 0.3125 L 10.859375 0.921875 C 10.828125 1.347656 10.8125 1.59375 10.8125 1.65625 C 10.8125 1.71875 10.835938 1.75 10.890625 1.75 C 10.953125 1.75 11.226562 1.707031 11.71875 1.625 C 12.132812 1.59375 12.359375 1.546875 12.390625 1.484375 C 12.429688 1.429688 12.546875 1.429688 12.734375 1.484375 C 12.921875 1.535156 13.085938 1.546875 13.234375 1.515625 C 13.378906 1.492188 13.453125 1.457031 13.453125 1.40625 C 13.453125 1.363281 13.457031 1.054688 13.46875 0.484375 Z M 13.46875 0.484375 "/></g></g></g><g fill="#000000" fill-opacity="1"><g transform="translate(87.845359, 21.307095)"><g><path d="M 12.515625 -17.765625 C 12.597656 -17.804688 12.734375 -17.828125 12.921875 -17.828125 C 13.109375 -17.828125 13.238281 -17.8125 13.3125 -17.78125 C 13.382812 -17.75 13.523438 -17.71875 13.734375 -17.6875 C 13.953125 -17.65625 14.125 -17.613281 14.25 -17.5625 C 14.445312 -17.46875 14.609375 -17.242188 14.734375 -16.890625 C 14.867188 -16.546875 14.9375 -16.15625 14.9375 -15.71875 C 14.9375 -15.34375 14.953125 -15.15625 14.984375 -15.15625 C 15.015625 -15.15625 15.140625 -15.195312 15.359375 -15.28125 C 15.578125 -15.375 15.726562 -15.453125 15.8125 -15.515625 C 15.9375 -15.597656 16.097656 -15.640625 16.296875 -15.640625 C 16.503906 -15.640625 16.679688 -15.59375 16.828125 -15.5 C 16.972656 -15.414062 17.046875 -15.335938 17.046875 -15.265625 C 17.046875 -15.203125 17.160156 -15.140625 17.390625 -15.078125 C 17.535156 -15.023438 17.632812 -14.972656 17.6875 -14.921875 C 17.738281 -14.878906 17.785156 -14.796875 17.828125 -14.671875 C 17.910156 -14.441406 17.96875 -14.304688 18 -14.265625 C 18.03125 -14.222656 18.046875 -14.113281 18.046875 -13.9375 L 18.078125 -13.640625 C 18.078125 -13.515625 18.007812 -13.285156 17.875 -12.953125 C 17.75 -12.628906 17.632812 -12.445312 17.53125 -12.40625 C 17.519531 -12.382812 17.453125 -12.226562 17.328125 -11.9375 C 17.210938 -11.644531 17.15625 -11.484375 17.15625 -11.453125 C 17.15625 -11.429688 17.226562 -11.390625 17.375 -11.328125 C 17.519531 -11.273438 17.648438 -11.242188 17.765625 -11.234375 C 18.097656 -11.160156 18.265625 -11.046875 18.265625 -10.890625 C 18.265625 -10.753906 18.363281 -10.644531 18.5625 -10.5625 C 18.769531 -10.488281 18.863281 -10.398438 18.84375 -10.296875 C 18.820312 -10.191406 18.863281 -10.082031 18.96875 -9.96875 C 19.070312 -9.851562 19.085938 -9.785156 19.015625 -9.765625 C 18.953125 -9.753906 18.898438 -9.566406 18.859375 -9.203125 L 18.703125 -8.453125 C 18.609375 -7.953125 18.457031 -7.398438 18.25 -6.796875 C 18.132812 -6.472656 18.085938 -6.296875 18.109375 -6.265625 C 18.128906 -6.242188 18.113281 -6.203125 18.0625 -6.140625 C 18.007812 -6.078125 18.003906 -6.03125 18.046875 -6 C 18.179688 -5.914062 18.101562 -5.820312 17.8125 -5.71875 C 17.625 -5.675781 17.148438 -5.503906 16.390625 -5.203125 C 15.640625 -4.898438 15.226562 -4.722656 15.15625 -4.671875 C 15.007812 -4.578125 14.914062 -4.035156 14.875 -3.046875 C 14.832031 -2.054688 14.875 -1.375 15 -1 C 15.070312 -0.863281 15.179688 -0.675781 15.328125 -0.4375 C 15.484375 -0.207031 15.613281 -0.046875 15.71875 0.046875 C 16.050781 0.335938 16.707031 0.492188 17.6875 0.515625 C 18.882812 0.546875 19.71875 0.328125 20.1875 -0.140625 C 20.664062 -0.617188 21.023438 -1.628906 21.265625 -3.171875 C 21.359375 -3.617188 21.429688 -3.96875 21.484375 -4.21875 L 21.5625 -4.578125 L 21.5625 -4.140625 C 21.59375 -3.867188 21.625 -3.734375 21.65625 -3.734375 C 21.707031 -3.742188 21.765625 -4.019531 21.828125 -4.5625 L 21.921875 -5.0625 C 21.921875 -4.9375 21.945312 -4.84375 22 -4.78125 C 22.0625 -4.726562 22.109375 -4.445312 22.140625 -3.9375 C 22.171875 -3.4375 22.226562 -3.175781 22.3125 -3.15625 C 22.394531 -3.132812 22.429688 -2.960938 22.421875 -2.640625 C 22.410156 -2.328125 22.414062 -1.898438 22.4375 -1.359375 C 22.46875 -0.890625 22.507812 -0.65625 22.5625 -0.65625 C 22.59375 -0.675781 22.609375 -0.648438 22.609375 -0.578125 C 22.617188 -0.515625 22.625 -0.351562 22.625 -0.09375 C 22.613281 0.3125 22.644531 0.597656 22.71875 0.765625 C 22.800781 0.929688 22.832031 1.070312 22.8125 1.1875 C 22.800781 1.300781 22.796875 1.410156 22.796875 1.515625 C 22.796875 1.628906 22.757812 1.6875 22.6875 1.6875 C 22.613281 1.6875 22.578125 1.707031 22.578125 1.75 C 22.578125 1.800781 22.46875 1.9375 22.25 2.15625 C 22.03125 2.375 21.90625 2.457031 21.875 2.40625 C 21.820312 2.394531 21.796875 2.40625 21.796875 2.4375 C 21.796875 2.519531 21.75 2.59375 21.65625 2.65625 C 21.570312 2.71875 21.488281 2.75 21.40625 2.75 C 21.289062 2.75 21.191406 2.785156 21.109375 2.859375 C 21.035156 2.929688 21 2.9375 21 2.875 C 21 2.820312 20.976562 2.796875 20.9375 2.796875 C 20.894531 2.796875 20.875 2.835938 20.875 2.921875 C 20.875 2.972656 20.847656 3.003906 20.796875 3.015625 C 20.753906 3.035156 20.625 3.050781 20.40625 3.0625 C 20.257812 3.082031 20.132812 3.101562 20.03125 3.125 C 19.601562 3.226562 19.015625 3.242188 18.265625 3.171875 C 17.765625 3.117188 17.484375 3.09375 17.421875 3.09375 C 17.109375 3.070312 16.675781 2.941406 16.125 2.703125 C 15.914062 2.609375 15.59375 2.347656 15.15625 1.921875 C 14.726562 1.503906 14.457031 1.171875 14.34375 0.921875 C 14.257812 0.742188 14.203125 0.613281 14.171875 0.53125 C 13.929688 0.113281 13.769531 -0.453125 13.6875 -1.171875 C 13.675781 -1.429688 13.644531 -1.5625 13.59375 -1.5625 C 13.539062 -1.5625 13.515625 -1.546875 13.515625 -1.515625 C 13.515625 -1.441406 13.3125 -0.96875 12.90625 -0.09375 C 12.789062 0.144531 12.734375 0.273438 12.734375 0.296875 C 12.734375 0.328125 12.6875 0.410156 12.59375 0.546875 C 12.5 0.679688 12.453125 0.804688 12.453125 0.921875 C 12.421875 1.003906 12.394531 1.046875 12.375 1.046875 C 12.351562 1.023438 12.316406 1.046875 12.265625 1.109375 C 12.222656 1.179688 12.1875 1.253906 12.15625 1.328125 C 12.125 1.398438 12.109375 1.453125 12.109375 1.484375 C 12.109375 1.546875 12.054688 1.601562 11.953125 1.65625 C 11.847656 1.707031 11.703125 1.898438 11.515625 2.234375 C 11.273438 2.660156 11.09375 2.882812 10.96875 2.90625 C 10.925781 2.90625 10.890625 2.789062 10.859375 2.5625 C 10.828125 2.25 10.738281 1.921875 10.59375 1.578125 C 10.476562 1.335938 10.460938 1.171875 10.546875 1.078125 C 10.628906 1.003906 10.613281 0.953125 10.5 0.921875 C 10.40625 0.910156 10.347656 0.878906 10.328125 0.828125 C 10.378906 0.804688 10.421875 0.78125 10.453125 0.75 C 10.515625 0.75 10.546875 0.695312 10.546875 0.59375 C 10.546875 0.488281 10.570312 0.421875 10.625 0.390625 C 10.6875 0.359375 10.707031 0.269531 10.6875 0.125 C 10.675781 -0.0078125 10.644531 -0.078125 10.59375 -0.078125 C 10.53125 -0.0859375 10.539062 -0.117188 10.625 -0.171875 C 10.71875 -0.222656 10.765625 -0.28125 10.765625 -0.34375 C 10.765625 -0.40625 10.796875 -0.453125 10.859375 -0.484375 C 10.992188 -0.566406 11.25 -1.003906 11.625 -1.796875 C 12.007812 -2.597656 12.171875 -3.019531 12.109375 -3.0625 C 12.085938 -3.101562 11.875 -3.039062 11.46875 -2.875 C 11.0625 -2.707031 10.796875 -2.613281 10.671875 -2.59375 C 10.554688 -2.570312 10.398438 -2.535156 10.203125 -2.484375 C 9.796875 -2.367188 9.5 -2.394531 9.3125 -2.5625 C 9.257812 -2.601562 9.226562 -2.613281 9.21875 -2.59375 C 9.207031 -2.570312 9.203125 -2.535156 9.203125 -2.484375 C 9.191406 -1.910156 9.101562 -0.832031 8.9375 0.75 L 8.859375 1.171875 L 8.765625 0.90625 C 8.734375 0.800781 8.6875 0.707031 8.625 0.625 C 8.5625 0.550781 8.5 0.5 8.4375 0.46875 C 8.382812 0.4375 8.34375 0.425781 8.3125 0.4375 C 8.289062 0.457031 8.195312 0.382812 8.03125 0.21875 C 7.875 0.0507812 7.707031 -0.128906 7.53125 -0.328125 C 7.363281 -0.535156 7.265625 -0.675781 7.234375 -0.75 C 7.179688 -0.882812 7.144531 -0.957031 7.125 -0.96875 C 7.101562 -0.988281 7.039062 -0.988281 6.9375 -0.96875 C 6.820312 -0.957031 6.351562 -0.675781 5.53125 -0.125 C 4.71875 0.414062 4.273438 0.6875 4.203125 0.6875 C 4.140625 0.6875 4.109375 0.707031 4.109375 0.75 C 4.097656 0.800781 3.921875 0.957031 3.578125 1.21875 C 3.234375 1.476562 3.046875 1.609375 3.015625 1.609375 C 2.984375 1.609375 2.878906 1.492188 2.703125 1.265625 C 2.523438 1.035156 2.410156 0.859375 2.359375 0.734375 C 2.296875 0.597656 2.242188 0.53125 2.203125 0.53125 C 2.160156 0.53125 2.085938 0.488281 1.984375 0.40625 C 1.878906 0.332031 1.851562 0.257812 1.90625 0.1875 C 2.019531 0.0078125 2.007812 -0.125 1.875 -0.21875 C 1.820312 -0.269531 1.796875 -0.328125 1.796875 -0.390625 C 1.796875 -0.453125 1.757812 -0.507812 1.6875 -0.5625 C 1.613281 -0.625 1.566406 -0.710938 1.546875 -0.828125 C 1.523438 -0.941406 1.535156 -1.039062 1.578125 -1.125 C 1.660156 -1.25 1.773438 -1.234375 1.921875 -1.078125 C 2.023438 -0.992188 2.113281 -0.953125 2.1875 -0.953125 C 2.269531 -0.953125 2.425781 -1.007812 2.65625 -1.125 L 3.046875 -1.265625 L 3 -1.5625 C 2.894531 -1.96875 2.785156 -2.210938 2.671875 -2.296875 C 2.640625 -2.304688 2.664062 -2.507812 2.75 -2.90625 C 2.8125 -3.351562 2.882812 -4.640625 2.96875 -6.765625 C 3.019531 -7.859375 3.0625 -8.734375 3.09375 -9.390625 C 3.125 -10.046875 3.132812 -10.441406 3.125 -10.578125 C 3.070312 -10.671875 2.9375 -10.832031 2.71875 -11.0625 C 2.507812 -11.289062 2.359375 -11.421875 2.265625 -11.453125 C 2.210938 -11.460938 2.160156 -11.503906 2.109375 -11.578125 C 2.066406 -11.648438 2.0625 -11.695312 2.09375 -11.71875 C 2.113281 -11.75 2.28125 -11.707031 2.59375 -11.59375 C 2.90625 -11.476562 3.144531 -11.378906 3.3125 -11.296875 C 3.457031 -11.234375 3.554688 -11.160156 3.609375 -11.078125 C 3.671875 -11.003906 3.722656 -10.96875 3.765625 -10.96875 C 3.804688 -10.96875 4.25 -11.203125 5.09375 -11.671875 C 5.9375 -12.140625 6.503906 -12.414062 6.796875 -12.5 C 7.085938 -12.582031 7.234375 -12.640625 7.234375 -12.671875 C 7.234375 -12.710938 7.269531 -12.734375 7.34375 -12.734375 C 7.414062 -12.734375 7.453125 -12.757812 7.453125 -12.8125 C 7.453125 -12.8125 7.457031 -12.8125 7.46875 -12.8125 C 7.488281 -12.8125 7.523438 -12.804688 7.578125 -12.796875 C 7.628906 -12.785156 7.675781 -12.773438 7.71875 -12.765625 C 7.914062 -12.679688 8.015625 -12.613281 8.015625 -12.5625 C 8.015625 -12.457031 8.144531 -12.421875 8.40625 -12.453125 C 8.457031 -12.453125 8.609375 -12.410156 8.859375 -12.328125 C 9.046875 -12.265625 9.160156 -12.207031 9.203125 -12.15625 C 9.253906 -12.101562 9.289062 -12.035156 9.3125 -11.953125 C 9.320312 -11.878906 9.335938 -11.828125 9.359375 -11.796875 C 9.390625 -11.773438 9.425781 -11.765625 9.46875 -11.765625 C 9.519531 -11.785156 9.550781 -11.773438 9.5625 -11.734375 C 9.570312 -11.703125 9.578125 -11.648438 9.578125 -11.578125 C 9.554688 -11.390625 9.609375 -11.25 9.734375 -11.15625 C 9.859375 -11.070312 9.90625 -10.988281 9.875 -10.90625 C 9.851562 -10.832031 9.828125 -10.769531 9.796875 -10.71875 C 9.796875 -10.632812 9.742188 -10.523438 9.640625 -10.390625 C 9.546875 -10.253906 9.46875 -10.1875 9.40625 -10.1875 C 9.289062 -10.1875 9.1875 -9.914062 9.09375 -9.375 C 9.050781 -9.226562 9.023438 -8.550781 9.015625 -7.34375 C 9.015625 -6.132812 9.019531 -5.328125 9.03125 -4.921875 C 9.082031 -4.578125 9.113281 -4.375 9.125 -4.3125 C 9.144531 -4.25 9.195312 -4.222656 9.28125 -4.234375 C 9.40625 -4.234375 9.722656 -4.347656 10.234375 -4.578125 L 10.984375 -4.921875 L 10.90625 -5.140625 C 10.875 -5.316406 10.851562 -5.96875 10.84375 -7.09375 C 10.820312 -8.019531 10.722656 -8.5625 10.546875 -8.71875 C 10.492188 -8.78125 10.46875 -8.835938 10.46875 -8.890625 C 10.46875 -8.972656 10.398438 -9.101562 10.265625 -9.28125 C 10.140625 -9.457031 10.023438 -9.578125 9.921875 -9.640625 C 9.660156 -9.804688 9.582031 -9.953125 9.6875 -10.078125 C 9.738281 -10.148438 9.84375 -10.160156 10 -10.109375 C 10.15625 -10.054688 10.296875 -10.03125 10.421875 -10.03125 C 10.703125 -10.03125 11.007812 -9.878906 11.34375 -9.578125 C 11.425781 -9.492188 11.492188 -9.445312 11.546875 -9.4375 C 11.597656 -9.425781 11.695312 -9.4375 11.84375 -9.46875 C 12.050781 -9.550781 12.175781 -9.601562 12.21875 -9.625 C 12.269531 -9.65625 12.375 -9.707031 12.53125 -9.78125 C 12.6875 -9.851562 12.863281 -9.921875 13.0625 -9.984375 L 13.984375 -10.375 L 14.609375 -10.640625 L 14.828125 -11.109375 C 14.992188 -11.429688 15.101562 -11.671875 15.15625 -11.828125 C 15.21875 -11.984375 15.335938 -12.238281 15.515625 -12.59375 C 15.753906 -13.0625 15.820312 -13.296875 15.71875 -13.296875 C 15.71875 -13.296875 15.695312 -13.289062 15.65625 -13.28125 C 15.582031 -13.226562 15.332031 -13.128906 14.90625 -12.984375 L 14.25 -12.734375 L 14 -12.234375 C 13.875 -11.953125 13.695312 -11.648438 13.46875 -11.328125 C 13.238281 -11.003906 13.101562 -10.84375 13.0625 -10.84375 C 12.988281 -10.84375 12.960938 -10.8125 12.984375 -10.75 C 13.015625 -10.695312 12.976562 -10.644531 12.875 -10.59375 C 12.769531 -10.539062 12.703125 -10.453125 12.671875 -10.328125 C 12.671875 -10.296875 12.648438 -10.265625 12.609375 -10.234375 C 12.578125 -10.203125 12.550781 -10.1875 12.53125 -10.1875 C 12.519531 -10.1875 12.503906 -10.175781 12.484375 -10.15625 C 12.472656 -10.144531 12.46875 -10.128906 12.46875 -10.109375 C 12.46875 -10.023438 12.421875 -9.957031 12.328125 -9.90625 C 12.242188 -9.863281 12.144531 -9.84375 12.03125 -9.84375 C 11.945312 -9.875 11.90625 -9.925781 11.90625 -10 C 11.90625 -10.070312 11.851562 -10.195312 11.75 -10.375 C 11.644531 -10.550781 11.570312 -10.640625 11.53125 -10.640625 C 11.488281 -10.640625 11.46875 -10.679688 11.46875 -10.765625 C 11.46875 -10.859375 11.421875 -10.953125 11.328125 -11.046875 C 11.234375 -11.148438 11.1875 -11.222656 11.1875 -11.265625 C 11.1875 -11.316406 11.160156 -11.378906 11.109375 -11.453125 C 10.960938 -11.597656 10.945312 -11.734375 11.0625 -11.859375 C 11.09375 -11.921875 11.070312 -11.992188 11 -12.078125 C 10.925781 -12.160156 10.929688 -12.242188 11.015625 -12.328125 C 11.078125 -12.410156 11.101562 -12.46875 11.09375 -12.5 C 11.082031 -12.53125 11.019531 -12.546875 10.90625 -12.546875 C 10.84375 -12.546875 10.800781 -12.550781 10.78125 -12.5625 C 10.769531 -12.582031 10.78125 -12.648438 10.8125 -12.765625 C 10.863281 -13.023438 10.976562 -13.15625 11.15625 -13.15625 C 11.207031 -13.15625 11.269531 -13.242188 11.34375 -13.421875 C 11.425781 -13.597656 11.5625 -13.816406 11.75 -14.078125 C 11.9375 -14.335938 12.015625 -14.492188 11.984375 -14.546875 C 11.960938 -14.609375 12.019531 -14.695312 12.15625 -14.8125 C 12.25 -14.90625 12.335938 -15.03125 12.421875 -15.1875 C 12.503906 -15.34375 12.53125 -15.453125 12.5 -15.515625 C 12.476562 -15.546875 12.484375 -15.5625 12.515625 -15.5625 C 12.546875 -15.5625 12.566406 -15.640625 12.578125 -15.796875 C 12.585938 -15.960938 12.609375 -16.160156 12.640625 -16.390625 C 12.671875 -16.617188 12.691406 -16.84375 12.703125 -17.0625 C 12.710938 -17.28125 12.660156 -17.398438 12.546875 -17.421875 C 12.453125 -17.421875 12.398438 -17.460938 12.390625 -17.546875 C 12.378906 -17.640625 12.421875 -17.710938 12.515625 -17.765625 Z M 6.796875 -10.078125 C 6.796875 -10.117188 6.785156 -10.144531 6.765625 -10.15625 C 6.753906 -10.175781 6.722656 -10.179688 6.671875 -10.171875 C 6.617188 -10.160156 6.550781 -10.132812 6.46875 -10.09375 C 6.394531 -10.050781 6.285156 -10 6.140625 -9.9375 C 5.796875 -9.789062 5.546875 -9.71875 5.390625 -9.71875 C 5.253906 -9.71875 5.164062 -9.691406 5.125 -9.640625 C 5.082031 -9.597656 5.101562 -9.535156 5.1875 -9.453125 C 5.21875 -9.398438 5.203125 -8.984375 5.140625 -8.203125 C 5.078125 -7.429688 5.046875 -6.972656 5.046875 -6.828125 L 5.046875 -6.578125 L 5.234375 -6.71875 C 5.367188 -6.789062 5.675781 -6.960938 6.15625 -7.234375 L 6.875 -7.671875 L 6.875 -8.0625 C 6.882812 -9.25 6.875 -9.859375 6.84375 -9.890625 C 6.8125 -9.921875 6.796875 -9.984375 6.796875 -10.078125 Z M 16.953125 -8.8125 C 17.003906 -9.21875 17.015625 -9.425781 16.984375 -9.4375 C 16.960938 -9.457031 16.75 -9.375 16.34375 -9.1875 C 15.9375 -9.007812 15.703125 -8.921875 15.640625 -8.921875 C 15.578125 -8.921875 15.539062 -8.882812 15.53125 -8.8125 C 15.519531 -8.75 15.515625 -8.585938 15.515625 -8.328125 C 15.546875 -7.953125 15.53125 -7.648438 15.46875 -7.421875 C 15.375 -7.128906 15.382812 -7.019531 15.5 -7.09375 C 15.507812 -7.101562 15.53125 -7.125 15.5625 -7.15625 C 15.664062 -7.257812 15.765625 -7.3125 15.859375 -7.3125 C 15.953125 -7.3125 16.007812 -7.328125 16.03125 -7.359375 C 16.0625 -7.398438 16.109375 -7.410156 16.171875 -7.390625 C 16.234375 -7.367188 16.316406 -7.398438 16.421875 -7.484375 C 16.460938 -7.546875 16.484375 -7.578125 16.484375 -7.578125 C 16.484375 -7.585938 16.453125 -7.585938 16.390625 -7.578125 C 16.203125 -7.523438 16.179688 -7.570312 16.328125 -7.71875 C 16.367188 -7.769531 16.429688 -7.835938 16.515625 -7.921875 C 16.679688 -8.046875 16.78125 -8.148438 16.8125 -8.234375 C 16.84375 -8.316406 16.890625 -8.507812 16.953125 -8.8125 Z M 13.6875 -7.046875 C 13.894531 -7.890625 13.90625 -8.285156 13.71875 -8.234375 C 13.664062 -8.210938 13.550781 -8.160156 13.375 -8.078125 C 13.207031 -8.003906 13.03125 -7.9375 12.84375 -7.875 L 12.5 -7.75 L 12.515625 -7.359375 C 12.535156 -6.378906 12.578125 -5.875 12.640625 -5.84375 C 12.640625 -5.832031 12.785156 -5.898438 13.078125 -6.046875 L 13.5 -6.265625 Z M 6.9375 -4.421875 C 6.9375 -5.097656 6.925781 -5.507812 6.90625 -5.65625 C 6.882812 -5.800781 6.847656 -5.875 6.796875 -5.875 C 6.628906 -5.851562 6.472656 -5.742188 6.328125 -5.546875 C 6.140625 -5.304688 5.769531 -5 5.21875 -4.625 L 4.890625 -4.484375 L 4.84375 -3.734375 C 4.78125 -2.878906 4.78125 -2.421875 4.84375 -2.359375 C 4.875 -2.328125 4.945312 -2.332031 5.0625 -2.375 C 5.175781 -2.425781 5.273438 -2.476562 5.359375 -2.53125 C 5.441406 -2.625 5.546875 -2.691406 5.671875 -2.734375 C 5.960938 -2.796875 6.109375 -2.925781 6.109375 -3.125 C 6.109375 -3.21875 6.132812 -3.269531 6.1875 -3.28125 C 6.25 -3.300781 6.304688 -3.285156 6.359375 -3.234375 C 6.453125 -3.160156 6.5625 -3.144531 6.6875 -3.1875 C 6.8125 -3.238281 6.890625 -3.28125 6.921875 -3.3125 C 6.929688 -3.375 6.9375 -3.742188 6.9375 -4.421875 Z M 6.9375 -4.421875 "/></g></g></g></svg>